<svg width="39" height="55" viewBox="0 0 39 55" fill="none" xmlns="http://www.w3.org/2000/svg">
<path d="M7.90186 0.191488C7.80337 0.192675 7.70681 0.218973 7.62132 0.267894C7.32436 0.432426 7.22686 0.773676 7.39163 1.07133L10.3253 6.37078C4.68155 9.3075 0.869205 14.8882 0.861705 21.2932H38.0019C37.9942 14.8882 34.1821 9.30727 28.5383 6.37078L31.4718 1.07157C31.6368 0.77391 31.539 0.432426 31.2421 0.267894C31.1566 0.218944 31.06 0.192644 30.9615 0.191488C30.7506 0.189145 30.5512 0.294613 30.4387 0.497582L27.4668 5.85422C25.0358 4.7761 22.3091 4.17071 19.4317 4.17071C16.5543 4.17071 13.8278 4.77586 11.3966 5.85422L8.42475 0.497582C8.37406 0.403553 8.2985 0.325268 8.20632 0.271284C8.11415 0.217301 8.0089 0.189696 7.9021 0.191488H7.90186ZM0.861705 22.7599V49.6779C0.860438 50.2678 0.975698 50.8521 1.20087 51.3974C1.42604 51.9426 1.75668 52.438 2.17382 52.8552C2.59096 53.2723 3.08638 53.6029 3.63164 53.828C4.17689 54.0532 4.76125 54.1684 5.35116 54.1671H33.5125C34.1024 54.1684 34.6868 54.0532 35.2321 53.828C35.7773 53.6028 36.2728 53.2722 36.6899 52.8551C37.107 52.4379 37.4377 51.9425 37.6628 51.3972C37.888 50.852 38.0032 50.2676 38.0019 49.6777V22.7602H0.861705V22.7599Z" fill="#A4C639"/>
</svg>
