<svg width="1579" height="438" viewBox="0 0 1579 438" fill="none" xmlns="http://www.w3.org/2000/svg">
<rect width="1579" height="437" transform="translate(0 0.0703125)" fill="#181818"/>
<g clip-path="url(#clip0_62_2950)">
<g clip-path="url(#clip1_62_2950)">
<g clip-path="url(#clip2_62_2950)">
<g clip-path="url(#clip3_62_2950)">
<path d="M275.64 128.07V113.77H284.5V115.89H278.3V120.15H283.18V122.21H278.3V128.07H275.64ZM286.577 128.07V117.61H288.997V128.07H286.577ZM288.777 115.49C288.497 115.757 288.157 115.89 287.757 115.89C287.357 115.89 287.017 115.757 286.737 115.49C286.457 115.224 286.317 114.897 286.317 114.51C286.317 114.11 286.457 113.777 286.737 113.51C287.017 113.244 287.357 113.11 287.757 113.11C288.157 113.11 288.497 113.244 288.777 113.51C289.057 113.777 289.197 114.11 289.197 114.51C289.197 114.897 289.057 115.224 288.777 115.49ZM292.046 128.07V117.61H294.466V119.27C294.733 118.724 295.16 118.277 295.746 117.93C296.333 117.57 297.033 117.39 297.846 117.39C298.953 117.39 299.826 117.73 300.466 118.41C301.106 119.077 301.426 120.104 301.426 121.49V128.07H299.006V121.71C299.006 120.924 298.84 120.344 298.506 119.97C298.173 119.597 297.646 119.41 296.926 119.41C296.206 119.41 295.613 119.63 295.146 120.07C294.693 120.497 294.466 121.11 294.466 121.91V128.07H292.046ZM308.774 131.91C307.214 131.91 306.021 131.597 305.194 130.97C304.368 130.344 303.881 129.497 303.734 128.43H306.174C306.388 129.524 307.248 130.07 308.754 130.07C310.701 130.07 311.674 129.13 311.674 127.25V125.71C311.368 126.244 310.901 126.704 310.274 127.09C309.661 127.464 308.988 127.65 308.254 127.65C306.921 127.65 305.814 127.19 304.934 126.27C304.054 125.35 303.614 124.15 303.614 122.67V122.53C303.614 121.064 304.061 119.844 304.954 118.87C305.848 117.884 306.968 117.39 308.314 117.39C309.861 117.39 310.981 117.997 311.674 119.21V117.61H314.094V127.29C314.081 128.797 313.601 129.944 312.654 130.73C311.721 131.517 310.428 131.91 308.774 131.91ZM308.854 125.79C309.708 125.79 310.401 125.504 310.934 124.93C311.481 124.357 311.754 123.577 311.754 122.59V122.45C311.754 121.464 311.501 120.69 310.994 120.13C310.488 119.57 309.801 119.29 308.934 119.29C308.054 119.29 307.361 119.584 306.854 120.17C306.348 120.757 306.094 121.53 306.094 122.49V122.65C306.094 123.597 306.354 124.357 306.874 124.93C307.394 125.504 308.054 125.79 308.854 125.79ZM321.67 128.27C320.11 128.27 318.837 127.79 317.85 126.83C316.864 125.87 316.37 124.577 316.37 122.95V122.79C316.37 121.19 316.857 119.89 317.83 118.89C318.817 117.89 320.064 117.39 321.57 117.39C322.984 117.39 324.157 117.83 325.09 118.71C326.037 119.59 326.51 120.91 326.51 122.67V123.37H318.85C318.89 124.37 319.157 125.137 319.65 125.67C320.144 126.204 320.837 126.47 321.73 126.47C323.144 126.47 323.944 125.937 324.13 124.87H326.47C326.297 125.964 325.79 126.804 324.95 127.39C324.11 127.977 323.017 128.27 321.67 128.27ZM318.89 121.75H324.11C323.99 120.017 323.144 119.15 321.57 119.15C320.85 119.15 320.25 119.384 319.77 119.85C319.304 120.304 319.01 120.937 318.89 121.75ZM328.772 128.07V117.61H331.192V119.57C331.885 118.17 333.019 117.464 334.592 117.45V119.71C333.459 119.724 332.605 119.95 332.032 120.39C331.472 120.83 331.192 121.577 331.192 122.63V128.07H328.772ZM340.479 128.25C339.452 128.25 338.666 127.984 338.119 127.45C337.586 126.917 337.319 126.15 337.319 125.15V119.43H335.919V117.61H337.319V115.31H339.739V117.61H342.039V119.43H339.739V124.93C339.739 125.824 340.139 126.27 340.939 126.27C341.406 126.27 341.799 126.204 342.119 126.07V127.99C341.652 128.164 341.106 128.25 340.479 128.25ZM344.462 128.07V117.61H346.882V128.07H344.462ZM346.662 115.49C346.382 115.757 346.042 115.89 345.642 115.89C345.242 115.89 344.902 115.757 344.622 115.49C344.342 115.224 344.202 114.897 344.202 114.51C344.202 114.11 344.342 113.777 344.622 113.51C344.902 113.244 345.242 113.11 345.642 113.11C346.042 113.11 346.382 113.244 346.662 113.51C346.942 113.777 347.082 114.11 347.082 114.51C347.082 114.897 346.942 115.224 346.662 115.49ZM349.931 131.65V117.61H352.351V119.29C352.658 118.757 353.118 118.31 353.731 117.95C354.358 117.577 355.038 117.39 355.771 117.39C357.118 117.39 358.225 117.87 359.091 118.83C359.971 119.777 360.411 121.07 360.411 122.71V122.87C360.411 124.524 359.978 125.837 359.111 126.81C358.258 127.784 357.145 128.27 355.771 128.27C354.985 128.27 354.291 128.104 353.691 127.77C353.091 127.424 352.645 126.977 352.351 126.43V131.65H349.931ZM355.171 126.35C356.065 126.35 356.745 126.057 357.211 125.47C357.691 124.884 357.931 124.03 357.931 122.91V122.75C357.931 121.63 357.671 120.777 357.151 120.19C356.645 119.59 355.978 119.29 355.151 119.29C354.285 119.29 353.585 119.59 353.051 120.19C352.531 120.777 352.271 121.63 352.271 122.75V122.91C352.271 124.044 352.525 124.904 353.031 125.49C353.551 126.064 354.265 126.35 355.171 126.35ZM367.288 128.27C365.728 128.27 364.454 127.79 363.468 126.83C362.481 125.87 361.988 124.577 361.988 122.95V122.79C361.988 121.19 362.474 119.89 363.448 118.89C364.434 117.89 365.681 117.39 367.188 117.39C368.601 117.39 369.774 117.83 370.708 118.71C371.654 119.59 372.128 120.91 372.128 122.67V123.37H364.468C364.508 124.37 364.774 125.137 365.268 125.67C365.761 126.204 366.454 126.47 367.348 126.47C368.761 126.47 369.561 125.937 369.748 124.87H372.088C371.914 125.964 371.408 126.804 370.568 127.39C369.728 127.977 368.634 128.27 367.288 128.27ZM364.508 121.75H369.728C369.608 120.017 368.761 119.15 367.188 119.15C366.468 119.15 365.868 119.384 365.388 119.85C364.921 120.304 364.628 120.937 364.508 121.75Z" fill="white"/>
<g clip-path="url(#clip4_62_2950)">
<path d="M275.312 194.07V182.63H277.44V187.494H282.576V182.63H284.72V194.07H282.576V189.206H277.44V194.07H275.312ZM291.034 192.726C291.748 192.726 292.308 192.481 292.714 191.99C293.13 191.489 293.338 190.806 293.338 189.942V189.83C293.338 188.966 293.13 188.289 292.714 187.798C292.308 187.297 291.748 187.046 291.034 187.046C290.308 187.046 289.737 187.292 289.322 187.782C288.916 188.273 288.714 188.95 288.714 189.814V189.942C288.714 190.806 288.916 191.489 289.322 191.99C289.737 192.481 290.308 192.726 291.034 192.726ZM294.106 193.046C293.295 193.836 292.266 194.23 291.017 194.23C289.769 194.23 288.74 193.836 287.929 193.046C287.129 192.257 286.729 191.233 286.729 189.974V189.846C286.729 188.566 287.135 187.526 287.945 186.726C288.756 185.926 289.786 185.526 291.034 185.526C292.271 185.526 293.295 185.921 294.106 186.71C294.916 187.5 295.321 188.529 295.321 189.798V189.926C295.321 191.217 294.916 192.257 294.106 193.046ZM297.271 194.07V185.702H299.207V186.982C299.42 186.566 299.751 186.22 300.199 185.942C300.647 185.665 301.164 185.526 301.751 185.526C302.924 185.526 303.713 186.028 304.119 187.03C304.428 186.54 304.839 186.166 305.351 185.91C305.863 185.654 306.396 185.526 306.951 185.526C307.772 185.526 308.439 185.798 308.951 186.342C309.473 186.876 309.735 187.686 309.735 188.774V194.07H307.799V188.902C307.799 187.729 307.303 187.142 306.311 187.142C305.799 187.142 305.361 187.313 304.999 187.654C304.647 187.985 304.471 188.454 304.471 189.062V194.07H302.535V188.902C302.535 187.729 302.039 187.142 301.047 187.142C300.535 187.142 300.097 187.313 299.735 187.654C299.383 187.985 299.207 188.454 299.207 189.062V194.07H297.271ZM315.838 194.23C314.59 194.23 313.572 193.846 312.782 193.078C311.993 192.31 311.598 191.276 311.598 189.974V189.846C311.598 188.566 311.988 187.526 312.766 186.726C313.556 185.926 314.553 185.526 315.758 185.526C316.889 185.526 317.828 185.878 318.574 186.582C319.332 187.286 319.71 188.342 319.71 189.75V190.31H313.582C313.614 191.11 313.828 191.724 314.222 192.15C314.617 192.577 315.172 192.79 315.886 192.79C317.017 192.79 317.657 192.364 317.806 191.51H319.678C319.54 192.385 319.134 193.057 318.462 193.526C317.79 193.996 316.916 194.23 315.838 194.23ZM313.614 189.014H317.79C317.694 187.628 317.017 186.934 315.758 186.934C315.182 186.934 314.702 187.121 314.318 187.494C313.945 187.857 313.71 188.364 313.614 189.014Z" fill="white"/>
<path d="M275.312 237.07V225.63H282.464V227.31H277.44V230.446H281.472V232.046H277.44V235.39H282.736V237.07H275.312ZM283.958 237.07L286.87 232.782L284.15 228.702H286.39L288.134 231.406L289.862 228.702H291.894L289.19 232.638L292.182 237.07H289.926L287.974 234.046L285.974 237.07H283.958ZM295.978 237.23C295.157 237.23 294.485 237.028 293.962 236.622C293.44 236.206 293.178 235.582 293.178 234.75C293.178 233.833 293.568 233.161 294.346 232.734C295.125 232.308 296.165 232.094 297.466 232.094H298.506V231.662C298.506 231.086 298.389 230.665 298.154 230.398C297.93 230.121 297.541 229.982 296.986 229.982C296.016 229.982 295.482 230.42 295.386 231.294H293.514C293.589 230.366 293.952 229.673 294.602 229.214C295.264 228.756 296.096 228.526 297.098 228.526C299.328 228.526 300.442 229.545 300.442 231.582V237.07H298.538V236.046C297.941 236.836 297.088 237.23 295.978 237.23ZM296.442 235.838C297.05 235.838 297.546 235.689 297.93 235.39C298.314 235.081 298.506 234.665 298.506 234.142V233.31H297.514C295.904 233.31 295.098 233.764 295.098 234.67C295.098 235.449 295.546 235.838 296.442 235.838ZM302.861 237.07V228.702H304.797V229.982C305.011 229.566 305.341 229.22 305.789 228.942C306.237 228.665 306.755 228.526 307.341 228.526C308.515 228.526 309.304 229.028 309.709 230.03C310.019 229.54 310.429 229.166 310.941 228.91C311.453 228.654 311.987 228.526 312.541 228.526C313.363 228.526 314.029 228.798 314.541 229.342C315.064 229.876 315.325 230.686 315.325 231.774V237.07H313.389V231.902C313.389 230.729 312.893 230.142 311.901 230.142C311.389 230.142 310.952 230.313 310.589 230.654C310.237 230.985 310.061 231.454 310.061 232.062V237.07H308.125V231.902C308.125 230.729 307.629 230.142 306.637 230.142C306.125 230.142 305.688 230.313 305.325 230.654C304.973 230.985 304.797 231.454 304.797 232.062V237.07H302.861ZM317.749 239.934V228.702H319.685V230.046C319.93 229.62 320.298 229.262 320.789 228.974C321.29 228.676 321.834 228.526 322.421 228.526C323.498 228.526 324.384 228.91 325.077 229.678C325.781 230.436 326.133 231.47 326.133 232.782V232.91C326.133 234.233 325.786 235.284 325.093 236.062C324.41 236.841 323.52 237.23 322.421 237.23C321.792 237.23 321.237 237.097 320.757 236.83C320.277 236.553 319.92 236.196 319.685 235.758V239.934H317.749ZM321.941 235.694C322.656 235.694 323.2 235.46 323.573 234.99C323.957 234.521 324.149 233.838 324.149 232.942V232.814C324.149 231.918 323.941 231.236 323.525 230.766C323.12 230.286 322.586 230.046 321.925 230.046C321.232 230.046 320.672 230.286 320.245 230.766C319.829 231.236 319.621 231.918 319.621 232.814V232.942C319.621 233.849 319.824 234.537 320.229 235.006C320.645 235.465 321.216 235.694 321.941 235.694ZM328.122 237.07V224.83H330.058V237.07H328.122ZM336.298 237.23C335.05 237.23 334.031 236.846 333.242 236.078C332.452 235.31 332.058 234.276 332.058 232.974V232.846C332.058 231.566 332.447 230.526 333.226 229.726C334.015 228.926 335.012 228.526 336.218 228.526C337.348 228.526 338.287 228.878 339.034 229.582C339.791 230.286 340.17 231.342 340.17 232.75V233.31H334.042C334.074 234.11 334.287 234.724 334.682 235.15C335.076 235.577 335.631 235.79 336.346 235.79C337.476 235.79 338.116 235.364 338.266 234.51H340.138C339.999 235.385 339.594 236.057 338.922 236.526C338.25 236.996 337.375 237.23 336.298 237.23ZM334.074 232.014H338.25C338.154 230.628 337.476 229.934 336.218 229.934C335.642 229.934 335.162 230.121 334.778 230.494C334.404 230.857 334.17 231.364 334.074 232.014ZM345.041 237.23C343.964 237.23 343.121 236.99 342.513 236.51C341.905 236.03 341.58 235.348 341.537 234.462H343.361C343.414 234.91 343.569 235.246 343.825 235.47C344.081 235.694 344.481 235.806 345.025 235.806C346.028 235.806 346.529 235.449 346.529 234.734C346.529 234.404 346.39 234.158 346.113 233.998C345.846 233.828 345.388 233.689 344.737 233.582C343.617 233.401 342.833 233.129 342.385 232.766C341.937 232.393 341.713 231.817 341.713 231.038C341.713 230.249 342.022 229.636 342.641 229.198C343.26 228.75 343.996 228.526 344.849 228.526C346.854 228.526 347.948 229.369 348.129 231.054H346.337C346.252 230.67 346.092 230.388 345.857 230.206C345.633 230.025 345.297 229.934 344.849 229.934C344.433 229.934 344.108 230.025 343.873 230.206C343.638 230.388 343.521 230.628 343.521 230.926C343.521 231.225 343.644 231.449 343.889 231.598C344.134 231.748 344.588 231.881 345.249 231.998C346.337 232.169 347.132 232.43 347.633 232.782C348.134 233.134 348.385 233.726 348.385 234.558C348.385 235.412 348.092 236.073 347.505 236.542C346.929 237.001 346.108 237.23 345.041 237.23Z" fill="white"/>
<path d="M275.312 280.07V268.63H278.992C280.315 268.63 281.349 268.929 282.096 269.526C282.853 270.113 283.232 270.993 283.232 272.166V272.23C283.232 273.393 282.853 274.268 282.096 274.854C281.339 275.43 280.32 275.718 279.04 275.718H277.44V280.07H275.312ZM277.44 274.182H278.992C279.696 274.182 280.229 274.017 280.592 273.686C280.965 273.345 281.152 272.86 281.152 272.23V272.166C281.152 270.908 280.432 270.278 278.992 270.278H277.44V274.182ZM285.102 280.07V271.702H287.038V273.27C287.593 272.15 288.499 271.585 289.758 271.574V273.382C288.851 273.393 288.169 273.574 287.71 273.926C287.262 274.278 287.038 274.876 287.038 275.718V280.07H285.102ZM291.709 280.07V271.702H293.645V280.07H291.709ZM293.469 270.006C293.245 270.22 292.973 270.326 292.653 270.326C292.333 270.326 292.061 270.22 291.837 270.006C291.613 269.793 291.501 269.532 291.501 269.222C291.501 268.902 291.613 268.636 291.837 268.422C292.061 268.209 292.333 268.102 292.653 268.102C292.973 268.102 293.245 268.209 293.469 268.422C293.693 268.636 293.805 268.902 293.805 269.222C293.805 269.532 293.693 269.793 293.469 270.006ZM299.869 280.23C298.642 280.23 297.629 279.852 296.829 279.094C296.04 278.326 295.645 277.292 295.645 275.99V275.862C295.645 274.561 296.05 273.516 296.861 272.726C297.672 271.926 298.674 271.526 299.869 271.526C300.893 271.526 301.757 271.782 302.461 272.294C303.176 272.796 303.586 273.585 303.693 274.662H301.821C301.672 273.606 301.032 273.078 299.901 273.078C299.229 273.078 298.68 273.324 298.253 273.814C297.837 274.305 297.629 274.977 297.629 275.83V275.958C297.629 276.854 297.832 277.542 298.237 278.022C298.653 278.502 299.224 278.742 299.949 278.742C300.482 278.742 300.936 278.588 301.309 278.278C301.693 277.958 301.912 277.516 301.965 276.95H303.741C303.666 277.932 303.282 278.726 302.589 279.334C301.896 279.932 300.989 280.23 299.869 280.23ZM305.656 280.07V271.702H307.592V280.07H305.656ZM307.416 270.006C307.192 270.22 306.92 270.326 306.6 270.326C306.28 270.326 306.008 270.22 305.784 270.006C305.56 269.793 305.448 269.532 305.448 269.222C305.448 268.902 305.56 268.636 305.784 268.422C306.008 268.209 306.28 268.102 306.6 268.102C306.92 268.102 307.192 268.209 307.416 268.422C307.64 268.636 307.752 268.902 307.752 269.222C307.752 269.532 307.64 269.793 307.416 270.006ZM310.152 280.07V271.702H312.088V273.03C312.301 272.593 312.643 272.236 313.112 271.958C313.581 271.67 314.141 271.526 314.792 271.526C315.677 271.526 316.376 271.798 316.888 272.342C317.4 272.876 317.656 273.697 317.656 274.806V280.07H315.72V274.982C315.72 274.353 315.587 273.889 315.32 273.59C315.053 273.292 314.632 273.142 314.056 273.142C313.48 273.142 313.005 273.318 312.632 273.67C312.269 274.012 312.088 274.502 312.088 275.142V280.07H310.152ZM323.654 283.142C322.406 283.142 321.452 282.892 320.79 282.39C320.129 281.889 319.74 281.212 319.622 280.358H321.574C321.745 281.233 322.433 281.67 323.638 281.67C325.196 281.67 325.974 280.918 325.974 279.414V278.182C325.729 278.609 325.356 278.977 324.854 279.286C324.364 279.585 323.825 279.734 323.238 279.734C322.172 279.734 321.286 279.366 320.582 278.63C319.878 277.894 319.526 276.934 319.526 275.75V275.638C319.526 274.465 319.884 273.489 320.598 272.71C321.313 271.921 322.209 271.526 323.286 271.526C324.524 271.526 325.42 272.012 325.974 272.982V271.702H327.91V279.446C327.9 280.652 327.516 281.569 326.758 282.198C326.012 282.828 324.977 283.142 323.654 283.142ZM323.718 278.246C324.401 278.246 324.956 278.017 325.382 277.558C325.82 277.1 326.038 276.476 326.038 275.686V275.574C326.038 274.785 325.836 274.166 325.43 273.718C325.025 273.27 324.476 273.046 323.782 273.046C323.078 273.046 322.524 273.281 322.118 273.75C321.713 274.22 321.51 274.838 321.51 275.606V275.734C321.51 276.492 321.718 277.1 322.134 277.558C322.55 278.017 323.078 278.246 323.718 278.246Z" fill="white"/>
<path d="M279.712 323.23C278.272 323.23 277.163 322.846 276.384 322.078C275.605 321.3 275.216 320.18 275.216 318.718V311.63H277.36V318.558C277.36 319.614 277.541 320.372 277.904 320.83C278.277 321.289 278.885 321.518 279.728 321.518C280.581 321.518 281.205 321.289 281.6 320.83C282.005 320.361 282.208 319.556 282.208 318.414V311.63H284.352V318.59C284.352 320.094 283.952 321.246 283.152 322.046C282.363 322.836 281.216 323.23 279.712 323.23ZM286.836 325.934V314.702H288.772V316.046C289.018 315.62 289.386 315.262 289.876 314.974C290.378 314.676 290.922 314.526 291.508 314.526C292.586 314.526 293.471 314.91 294.164 315.678C294.868 316.436 295.22 317.47 295.22 318.782V318.91C295.22 320.233 294.874 321.284 294.18 322.062C293.498 322.841 292.607 323.23 291.508 323.23C290.879 323.23 290.324 323.097 289.844 322.83C289.364 322.553 289.007 322.196 288.772 321.758V325.934H286.836ZM291.028 321.694C291.743 321.694 292.287 321.46 292.66 320.99C293.044 320.521 293.236 319.838 293.236 318.942V318.814C293.236 317.918 293.028 317.236 292.612 316.766C292.207 316.286 291.674 316.046 291.012 316.046C290.319 316.046 289.759 316.286 289.332 316.766C288.916 317.236 288.708 317.918 288.708 318.814V318.942C288.708 319.849 288.911 320.537 289.316 321.006C289.732 321.465 290.303 321.694 291.028 321.694ZM300.297 323.23C299.209 323.23 298.324 322.862 297.641 322.126C296.959 321.38 296.617 320.345 296.617 319.022V318.894C296.617 317.572 296.969 316.516 297.673 315.726C298.377 314.926 299.279 314.526 300.377 314.526C301.615 314.526 302.505 315.012 303.049 315.982V310.83H304.985V323.07H303.049V321.662C302.815 322.1 302.441 322.473 301.929 322.782C301.428 323.081 300.884 323.23 300.297 323.23ZM300.777 321.694C301.481 321.694 302.047 321.46 302.473 320.99C302.9 320.521 303.113 319.833 303.113 318.926V318.798C303.113 317.892 302.916 317.209 302.521 316.75C302.127 316.281 301.572 316.046 300.857 316.046C300.143 316.046 299.588 316.292 299.193 316.782C298.799 317.262 298.601 317.95 298.601 318.846V318.974C298.601 319.86 298.799 320.537 299.193 321.006C299.599 321.465 300.127 321.694 300.777 321.694ZM309.678 323.23C308.857 323.23 308.185 323.028 307.662 322.622C307.14 322.206 306.878 321.582 306.878 320.75C306.878 319.833 307.268 319.161 308.046 318.734C308.825 318.308 309.865 318.094 311.166 318.094H312.206V317.662C312.206 317.086 312.089 316.665 311.854 316.398C311.63 316.121 311.241 315.982 310.686 315.982C309.716 315.982 309.182 316.42 309.086 317.294H307.214C307.289 316.366 307.652 315.673 308.302 315.214C308.964 314.756 309.796 314.526 310.798 314.526C313.028 314.526 314.142 315.545 314.142 317.582V323.07H312.238V322.046C311.641 322.836 310.788 323.23 309.678 323.23ZM310.142 321.838C310.75 321.838 311.246 321.689 311.63 321.39C312.014 321.081 312.206 320.665 312.206 320.142V319.31H311.214C309.604 319.31 308.798 319.764 308.798 320.67C308.798 321.449 309.246 321.838 310.142 321.838ZM319.409 323.214C318.588 323.214 317.959 323.001 317.521 322.574C317.095 322.148 316.881 321.534 316.881 320.734V316.158H315.761V314.702H316.881V312.862H318.817V314.702H320.657V316.158H318.817V320.558C318.817 321.273 319.137 321.63 319.777 321.63C320.151 321.63 320.465 321.577 320.721 321.47V323.006C320.348 323.145 319.911 323.214 319.409 323.214ZM326.348 323.23C325.1 323.23 324.081 322.846 323.292 322.078C322.502 321.31 322.108 320.276 322.108 318.974V318.846C322.108 317.566 322.497 316.526 323.276 315.726C324.065 314.926 325.062 314.526 326.268 314.526C327.398 314.526 328.337 314.878 329.084 315.582C329.841 316.286 330.22 317.342 330.22 318.75V319.31H324.092C324.124 320.11 324.337 320.724 324.732 321.15C325.126 321.577 325.681 321.79 326.396 321.79C327.526 321.79 328.166 321.364 328.316 320.51H330.188C330.049 321.385 329.644 322.057 328.972 322.526C328.3 322.996 327.425 323.23 326.348 323.23ZM324.124 318.014H328.3C328.204 316.628 327.526 315.934 326.268 315.934C325.692 315.934 325.212 316.121 324.828 316.494C324.454 316.857 324.22 317.364 324.124 318.014ZM335.091 323.23C334.014 323.23 333.171 322.99 332.563 322.51C331.955 322.03 331.63 321.348 331.587 320.462H333.411C333.464 320.91 333.619 321.246 333.875 321.47C334.131 321.694 334.531 321.806 335.075 321.806C336.078 321.806 336.579 321.449 336.579 320.734C336.579 320.404 336.44 320.158 336.163 319.998C335.896 319.828 335.438 319.689 334.787 319.582C333.667 319.401 332.883 319.129 332.435 318.766C331.987 318.393 331.763 317.817 331.763 317.038C331.763 316.249 332.072 315.636 332.691 315.198C333.31 314.75 334.046 314.526 334.899 314.526C336.904 314.526 337.998 315.369 338.179 317.054H336.387C336.302 316.67 336.142 316.388 335.907 316.206C335.683 316.025 335.347 315.934 334.899 315.934C334.483 315.934 334.158 316.025 333.923 316.206C333.688 316.388 333.571 316.628 333.571 316.926C333.571 317.225 333.694 317.449 333.939 317.598C334.184 317.748 334.638 317.881 335.299 317.998C336.387 318.169 337.182 318.43 337.683 318.782C338.184 319.134 338.435 319.726 338.435 320.558C338.435 321.412 338.142 322.073 337.555 322.542C336.979 323.001 336.158 323.23 335.091 323.23Z" fill="white"/>
</g>
</g>
<g clip-path="url(#clip5_62_2950)">
<path d="M471.64 128.07V113.77H476.44C478.08 113.77 479.38 114.117 480.34 114.81C481.3 115.504 481.78 116.557 481.78 117.97V118.05C481.78 120.064 480.72 121.344 478.6 121.89L482.62 128.07H479.74L476 122.29H474.3V128.07H471.64ZM474.3 120.39H476.44C478.253 120.39 479.16 119.63 479.16 118.11V118.03C479.16 117.244 478.927 116.684 478.46 116.35C478.007 116.004 477.333 115.83 476.44 115.83H474.3V120.39ZM488.855 128.27C487.295 128.27 486.022 127.79 485.035 126.83C484.048 125.87 483.555 124.577 483.555 122.95V122.79C483.555 121.19 484.042 119.89 485.015 118.89C486.002 117.89 487.248 117.39 488.755 117.39C490.168 117.39 491.342 117.83 492.275 118.71C493.222 119.59 493.695 120.91 493.695 122.67V123.37H486.035C486.075 124.37 486.342 125.137 486.835 125.67C487.328 126.204 488.022 126.47 488.915 126.47C490.328 126.47 491.128 125.937 491.315 124.87H493.655C493.482 125.964 492.975 126.804 492.135 127.39C491.295 127.977 490.202 128.27 488.855 128.27ZM486.075 121.75H491.295C491.175 120.017 490.328 119.15 488.755 119.15C488.035 119.15 487.435 119.384 486.955 119.85C486.488 120.304 486.195 120.937 486.075 121.75ZM499.634 128.27C498.287 128.27 497.234 127.97 496.474 127.37C495.714 126.77 495.307 125.917 495.254 124.81H497.534C497.601 125.37 497.794 125.79 498.114 126.07C498.434 126.35 498.934 126.49 499.614 126.49C500.867 126.49 501.494 126.044 501.494 125.15C501.494 124.737 501.321 124.43 500.974 124.23C500.641 124.017 500.067 123.844 499.254 123.71C497.854 123.484 496.874 123.144 496.314 122.69C495.754 122.224 495.474 121.504 495.474 120.53C495.474 119.544 495.861 118.777 496.634 118.23C497.407 117.67 498.327 117.39 499.394 117.39C501.901 117.39 503.267 118.444 503.494 120.55H501.254C501.147 120.07 500.947 119.717 500.654 119.49C500.374 119.264 499.954 119.15 499.394 119.15C498.874 119.15 498.467 119.264 498.174 119.49C497.881 119.717 497.734 120.017 497.734 120.39C497.734 120.764 497.887 121.044 498.194 121.23C498.501 121.417 499.067 121.584 499.894 121.73C501.254 121.944 502.247 122.27 502.874 122.71C503.501 123.15 503.814 123.89 503.814 124.93C503.814 125.997 503.447 126.824 502.714 127.41C501.994 127.984 500.967 128.27 499.634 128.27ZM510.717 126.39C511.61 126.39 512.31 126.084 512.817 125.47C513.337 124.844 513.597 123.99 513.597 122.91V122.77C513.597 121.69 513.337 120.844 512.817 120.23C512.31 119.604 511.61 119.29 510.717 119.29C509.81 119.29 509.097 119.597 508.577 120.21C508.07 120.824 507.817 121.67 507.817 122.75V122.91C507.817 123.99 508.07 124.844 508.577 125.47C509.097 126.084 509.81 126.39 510.717 126.39ZM514.557 126.79C513.544 127.777 512.257 128.27 510.697 128.27C509.137 128.27 507.85 127.777 506.837 126.79C505.837 125.804 505.337 124.524 505.337 122.95V122.79C505.337 121.19 505.844 119.89 506.857 118.89C507.87 117.89 509.157 117.39 510.717 117.39C512.264 117.39 513.544 117.884 514.557 118.87C515.57 119.857 516.077 121.144 516.077 122.73V122.89C516.077 124.504 515.57 125.804 514.557 126.79ZM521.863 128.27C520.77 128.27 519.897 127.944 519.243 127.29C518.59 126.637 518.263 125.644 518.263 124.31V117.61H520.683V124.03C520.683 124.817 520.85 125.397 521.183 125.77C521.517 126.144 522.037 126.33 522.743 126.33C523.437 126.33 524.017 126.11 524.483 125.67C524.95 125.23 525.183 124.617 525.183 123.83V117.61H527.603V128.07H525.183V126.43C524.903 126.977 524.477 127.424 523.903 127.77C523.343 128.104 522.663 128.27 521.863 128.27ZM530.573 128.07V117.61H532.993V119.57C533.686 118.17 534.819 117.464 536.393 117.45V119.71C535.259 119.724 534.406 119.95 533.833 120.39C533.273 120.83 532.993 121.577 532.993 122.63V128.07H530.573ZM543.007 128.27C541.473 128.27 540.207 127.797 539.207 126.85C538.22 125.89 537.727 124.597 537.727 122.97V122.81C537.727 121.184 538.233 119.877 539.247 118.89C540.26 117.89 541.513 117.39 543.007 117.39C544.287 117.39 545.367 117.71 546.247 118.35C547.14 118.977 547.653 119.964 547.787 121.31H545.447C545.26 119.99 544.46 119.33 543.047 119.33C542.207 119.33 541.52 119.637 540.987 120.25C540.467 120.864 540.207 121.704 540.207 122.77V122.93C540.207 124.05 540.46 124.91 540.967 125.51C541.487 126.11 542.2 126.41 543.107 126.41C543.773 126.41 544.34 126.217 544.807 125.83C545.287 125.43 545.56 124.877 545.627 124.17H547.847C547.753 125.397 547.273 126.39 546.407 127.15C545.54 127.897 544.407 128.27 543.007 128.27ZM554.631 128.27C553.071 128.27 551.797 127.79 550.811 126.83C549.824 125.87 549.331 124.577 549.331 122.95V122.79C549.331 121.19 549.817 119.89 550.791 118.89C551.777 117.89 553.024 117.39 554.531 117.39C555.944 117.39 557.117 117.83 558.051 118.71C558.997 119.59 559.471 120.91 559.471 122.67V123.37H551.811C551.851 124.37 552.117 125.137 552.611 125.67C553.104 126.204 553.797 126.47 554.691 126.47C556.104 126.47 556.904 125.937 557.091 124.87H559.431C559.257 125.964 558.751 126.804 557.911 127.39C557.071 127.977 555.977 128.27 554.631 128.27ZM551.851 121.75H557.071C556.951 120.017 556.104 119.15 554.531 119.15C553.811 119.15 553.211 119.384 552.731 119.85C552.264 120.304 551.971 120.937 551.851 121.75ZM565.41 128.27C564.063 128.27 563.01 127.97 562.25 127.37C561.49 126.77 561.083 125.917 561.03 124.81H563.31C563.377 125.37 563.57 125.79 563.89 126.07C564.21 126.35 564.71 126.49 565.39 126.49C566.643 126.49 567.27 126.044 567.27 125.15C567.27 124.737 567.097 124.43 566.75 124.23C566.417 124.017 565.843 123.844 565.03 123.71C563.63 123.484 562.65 123.144 562.09 122.69C561.53 122.224 561.25 121.504 561.25 120.53C561.25 119.544 561.637 118.777 562.41 118.23C563.183 117.67 564.103 117.39 565.17 117.39C567.677 117.39 569.043 118.444 569.27 120.55H567.03C566.923 120.07 566.723 119.717 566.43 119.49C566.15 119.264 565.73 119.15 565.17 119.15C564.65 119.15 564.243 119.264 563.95 119.49C563.657 119.717 563.51 120.017 563.51 120.39C563.51 120.764 563.663 121.044 563.97 121.23C564.277 121.417 564.843 121.584 565.67 121.73C567.03 121.944 568.023 122.27 568.65 122.71C569.277 123.15 569.59 123.89 569.59 124.93C569.59 125.997 569.223 126.824 568.49 127.41C567.77 127.984 566.743 128.27 565.41 128.27Z" fill="white"/>
<g clip-path="url(#clip6_62_2950)">
<path d="M471.312 194.07V182.63H473.44V187.494H478.576V182.63H480.72V194.07H478.576V189.206H473.44V194.07H471.312ZM487.034 192.726C487.748 192.726 488.308 192.481 488.714 191.99C489.13 191.489 489.338 190.806 489.338 189.942V189.83C489.338 188.966 489.13 188.289 488.714 187.798C488.308 187.297 487.748 187.046 487.034 187.046C486.308 187.046 485.737 187.292 485.322 187.782C484.916 188.273 484.714 188.95 484.714 189.814V189.942C484.714 190.806 484.916 191.489 485.322 191.99C485.737 192.481 486.308 192.726 487.034 192.726ZM490.106 193.046C489.295 193.836 488.266 194.23 487.017 194.23C485.769 194.23 484.74 193.836 483.929 193.046C483.129 192.257 482.729 191.233 482.729 189.974V189.846C482.729 188.566 483.135 187.526 483.945 186.726C484.756 185.926 485.786 185.526 487.034 185.526C488.271 185.526 489.295 185.921 490.106 186.71C490.916 187.5 491.321 188.529 491.321 189.798V189.926C491.321 191.217 490.916 192.257 490.106 193.046ZM493.271 194.07V185.702H495.207V186.982C495.42 186.566 495.751 186.22 496.199 185.942C496.647 185.665 497.164 185.526 497.751 185.526C498.924 185.526 499.713 186.028 500.119 187.03C500.428 186.54 500.839 186.166 501.351 185.91C501.863 185.654 502.396 185.526 502.951 185.526C503.772 185.526 504.439 185.798 504.951 186.342C505.473 186.876 505.735 187.686 505.735 188.774V194.07H503.799V188.902C503.799 187.729 503.303 187.142 502.311 187.142C501.799 187.142 501.361 187.313 500.999 187.654C500.647 187.985 500.471 188.454 500.471 189.062V194.07H498.535V188.902C498.535 187.729 498.039 187.142 497.047 187.142C496.535 187.142 496.097 187.313 495.735 187.654C495.383 187.985 495.207 188.454 495.207 189.062V194.07H493.271ZM511.838 194.23C510.59 194.23 509.572 193.846 508.782 193.078C507.993 192.31 507.598 191.276 507.598 189.974V189.846C507.598 188.566 507.988 187.526 508.766 186.726C509.556 185.926 510.553 185.526 511.758 185.526C512.889 185.526 513.828 185.878 514.574 186.582C515.332 187.286 515.71 188.342 515.71 189.75V190.31H509.582C509.614 191.11 509.828 191.724 510.222 192.15C510.617 192.577 511.172 192.79 511.886 192.79C513.017 192.79 513.657 192.364 513.806 191.51H515.678C515.54 192.385 515.134 193.057 514.462 193.526C513.79 193.996 512.916 194.23 511.838 194.23ZM509.614 189.014H513.79C513.694 187.628 513.017 186.934 511.758 186.934C511.182 186.934 510.702 187.121 510.318 187.494C509.945 187.857 509.71 188.364 509.614 189.014Z" fill="white"/>
<path d="M471.312 237.07V225.63H478.464V227.31H473.44V230.446H477.472V232.046H473.44V235.39H478.736V237.07H471.312ZM479.958 237.07L482.87 232.782L480.15 228.702H482.39L484.134 231.406L485.862 228.702H487.894L485.19 232.638L488.182 237.07H485.926L483.974 234.046L481.974 237.07H479.958ZM491.978 237.23C491.157 237.23 490.485 237.028 489.962 236.622C489.44 236.206 489.178 235.582 489.178 234.75C489.178 233.833 489.568 233.161 490.346 232.734C491.125 232.308 492.165 232.094 493.466 232.094H494.506V231.662C494.506 231.086 494.389 230.665 494.154 230.398C493.93 230.121 493.541 229.982 492.986 229.982C492.016 229.982 491.482 230.42 491.386 231.294H489.514C489.589 230.366 489.952 229.673 490.602 229.214C491.264 228.756 492.096 228.526 493.098 228.526C495.328 228.526 496.442 229.545 496.442 231.582V237.07H494.538V236.046C493.941 236.836 493.088 237.23 491.978 237.23ZM492.442 235.838C493.05 235.838 493.546 235.689 493.93 235.39C494.314 235.081 494.506 234.665 494.506 234.142V233.31H493.514C491.904 233.31 491.098 233.764 491.098 234.67C491.098 235.449 491.546 235.838 492.442 235.838ZM498.861 237.07V228.702H500.797V229.982C501.011 229.566 501.341 229.22 501.789 228.942C502.237 228.665 502.755 228.526 503.341 228.526C504.515 228.526 505.304 229.028 505.709 230.03C506.019 229.54 506.429 229.166 506.941 228.91C507.453 228.654 507.987 228.526 508.541 228.526C509.363 228.526 510.029 228.798 510.541 229.342C511.064 229.876 511.325 230.686 511.325 231.774V237.07H509.389V231.902C509.389 230.729 508.893 230.142 507.901 230.142C507.389 230.142 506.952 230.313 506.589 230.654C506.237 230.985 506.061 231.454 506.061 232.062V237.07H504.125V231.902C504.125 230.729 503.629 230.142 502.637 230.142C502.125 230.142 501.688 230.313 501.325 230.654C500.973 230.985 500.797 231.454 500.797 232.062V237.07H498.861ZM513.749 239.934V228.702H515.685V230.046C515.93 229.62 516.298 229.262 516.789 228.974C517.29 228.676 517.834 228.526 518.421 228.526C519.498 228.526 520.384 228.91 521.077 229.678C521.781 230.436 522.133 231.47 522.133 232.782V232.91C522.133 234.233 521.786 235.284 521.093 236.062C520.41 236.841 519.52 237.23 518.421 237.23C517.792 237.23 517.237 237.097 516.757 236.83C516.277 236.553 515.92 236.196 515.685 235.758V239.934H513.749ZM517.941 235.694C518.656 235.694 519.2 235.46 519.573 234.99C519.957 234.521 520.149 233.838 520.149 232.942V232.814C520.149 231.918 519.941 231.236 519.525 230.766C519.12 230.286 518.586 230.046 517.925 230.046C517.232 230.046 516.672 230.286 516.245 230.766C515.829 231.236 515.621 231.918 515.621 232.814V232.942C515.621 233.849 515.824 234.537 516.229 235.006C516.645 235.465 517.216 235.694 517.941 235.694ZM524.122 237.07V224.83H526.058V237.07H524.122ZM532.298 237.23C531.05 237.23 530.031 236.846 529.242 236.078C528.452 235.31 528.058 234.276 528.058 232.974V232.846C528.058 231.566 528.447 230.526 529.226 229.726C530.015 228.926 531.012 228.526 532.218 228.526C533.348 228.526 534.287 228.878 535.034 229.582C535.791 230.286 536.17 231.342 536.17 232.75V233.31H530.042C530.074 234.11 530.287 234.724 530.682 235.15C531.076 235.577 531.631 235.79 532.346 235.79C533.476 235.79 534.116 235.364 534.266 234.51H536.138C535.999 235.385 535.594 236.057 534.922 236.526C534.25 236.996 533.375 237.23 532.298 237.23ZM530.074 232.014H534.25C534.154 230.628 533.476 229.934 532.218 229.934C531.642 229.934 531.162 230.121 530.778 230.494C530.404 230.857 530.17 231.364 530.074 232.014ZM541.041 237.23C539.964 237.23 539.121 236.99 538.513 236.51C537.905 236.03 537.58 235.348 537.537 234.462H539.361C539.414 234.91 539.569 235.246 539.825 235.47C540.081 235.694 540.481 235.806 541.025 235.806C542.028 235.806 542.529 235.449 542.529 234.734C542.529 234.404 542.39 234.158 542.113 233.998C541.846 233.828 541.388 233.689 540.737 233.582C539.617 233.401 538.833 233.129 538.385 232.766C537.937 232.393 537.713 231.817 537.713 231.038C537.713 230.249 538.022 229.636 538.641 229.198C539.26 228.75 539.996 228.526 540.849 228.526C542.854 228.526 543.948 229.369 544.129 231.054H542.337C542.252 230.67 542.092 230.388 541.857 230.206C541.633 230.025 541.297 229.934 540.849 229.934C540.433 229.934 540.108 230.025 539.873 230.206C539.638 230.388 539.521 230.628 539.521 230.926C539.521 231.225 539.644 231.449 539.889 231.598C540.134 231.748 540.588 231.881 541.249 231.998C542.337 232.169 543.132 232.43 543.633 232.782C544.134 233.134 544.385 233.726 544.385 234.558C544.385 235.412 544.092 236.073 543.505 236.542C542.929 237.001 542.108 237.23 541.041 237.23Z" fill="white"/>
<path d="M471.312 280.07V268.63H474.992C476.315 268.63 477.349 268.929 478.096 269.526C478.853 270.113 479.232 270.993 479.232 272.166V272.23C479.232 273.393 478.853 274.268 478.096 274.854C477.339 275.43 476.32 275.718 475.04 275.718H473.44V280.07H471.312ZM473.44 274.182H474.992C475.696 274.182 476.229 274.017 476.592 273.686C476.965 273.345 477.152 272.86 477.152 272.23V272.166C477.152 270.908 476.432 270.278 474.992 270.278H473.44V274.182ZM481.102 280.07V271.702H483.038V273.27C483.593 272.15 484.499 271.585 485.758 271.574V273.382C484.851 273.393 484.169 273.574 483.71 273.926C483.262 274.278 483.038 274.876 483.038 275.718V280.07H481.102ZM487.709 280.07V271.702H489.645V280.07H487.709ZM489.469 270.006C489.245 270.22 488.973 270.326 488.653 270.326C488.333 270.326 488.061 270.22 487.837 270.006C487.613 269.793 487.501 269.532 487.501 269.222C487.501 268.902 487.613 268.636 487.837 268.422C488.061 268.209 488.333 268.102 488.653 268.102C488.973 268.102 489.245 268.209 489.469 268.422C489.693 268.636 489.805 268.902 489.805 269.222C489.805 269.532 489.693 269.793 489.469 270.006ZM495.869 280.23C494.642 280.23 493.629 279.852 492.829 279.094C492.04 278.326 491.645 277.292 491.645 275.99V275.862C491.645 274.561 492.05 273.516 492.861 272.726C493.672 271.926 494.674 271.526 495.869 271.526C496.893 271.526 497.757 271.782 498.461 272.294C499.176 272.796 499.586 273.585 499.693 274.662H497.821C497.672 273.606 497.032 273.078 495.901 273.078C495.229 273.078 494.68 273.324 494.253 273.814C493.837 274.305 493.629 274.977 493.629 275.83V275.958C493.629 276.854 493.832 277.542 494.237 278.022C494.653 278.502 495.224 278.742 495.949 278.742C496.482 278.742 496.936 278.588 497.309 278.278C497.693 277.958 497.912 277.516 497.965 276.95H499.741C499.666 277.932 499.282 278.726 498.589 279.334C497.896 279.932 496.989 280.23 495.869 280.23ZM501.656 280.07V271.702H503.592V280.07H501.656ZM503.416 270.006C503.192 270.22 502.92 270.326 502.6 270.326C502.28 270.326 502.008 270.22 501.784 270.006C501.56 269.793 501.448 269.532 501.448 269.222C501.448 268.902 501.56 268.636 501.784 268.422C502.008 268.209 502.28 268.102 502.6 268.102C502.92 268.102 503.192 268.209 503.416 268.422C503.64 268.636 503.752 268.902 503.752 269.222C503.752 269.532 503.64 269.793 503.416 270.006ZM506.152 280.07V271.702H508.088V273.03C508.301 272.593 508.643 272.236 509.112 271.958C509.581 271.67 510.141 271.526 510.792 271.526C511.677 271.526 512.376 271.798 512.888 272.342C513.4 272.876 513.656 273.697 513.656 274.806V280.07H511.72V274.982C511.72 274.353 511.587 273.889 511.32 273.59C511.053 273.292 510.632 273.142 510.056 273.142C509.48 273.142 509.005 273.318 508.632 273.67C508.269 274.012 508.088 274.502 508.088 275.142V280.07H506.152ZM519.654 283.142C518.406 283.142 517.452 282.892 516.79 282.39C516.129 281.889 515.74 281.212 515.622 280.358H517.574C517.745 281.233 518.433 281.67 519.638 281.67C521.196 281.67 521.974 280.918 521.974 279.414V278.182C521.729 278.609 521.356 278.977 520.854 279.286C520.364 279.585 519.825 279.734 519.238 279.734C518.172 279.734 517.286 279.366 516.582 278.63C515.878 277.894 515.526 276.934 515.526 275.75V275.638C515.526 274.465 515.884 273.489 516.598 272.71C517.313 271.921 518.209 271.526 519.286 271.526C520.524 271.526 521.42 272.012 521.974 272.982V271.702H523.91V279.446C523.9 280.652 523.516 281.569 522.758 282.198C522.012 282.828 520.977 283.142 519.654 283.142ZM519.718 278.246C520.401 278.246 520.956 278.017 521.382 277.558C521.82 277.1 522.038 276.476 522.038 275.686V275.574C522.038 274.785 521.836 274.166 521.43 273.718C521.025 273.27 520.476 273.046 519.782 273.046C519.078 273.046 518.524 273.281 518.118 273.75C517.713 274.22 517.51 274.838 517.51 275.606V275.734C517.51 276.492 517.718 277.1 518.134 277.558C518.55 278.017 519.078 278.246 519.718 278.246Z" fill="white"/>
<path d="M475.712 323.23C474.272 323.23 473.163 322.846 472.384 322.078C471.605 321.3 471.216 320.18 471.216 318.718V311.63H473.36V318.558C473.36 319.614 473.541 320.372 473.904 320.83C474.277 321.289 474.885 321.518 475.728 321.518C476.581 321.518 477.205 321.289 477.6 320.83C478.005 320.361 478.208 319.556 478.208 318.414V311.63H480.352V318.59C480.352 320.094 479.952 321.246 479.152 322.046C478.363 322.836 477.216 323.23 475.712 323.23ZM482.836 325.934V314.702H484.772V316.046C485.018 315.62 485.386 315.262 485.876 314.974C486.378 314.676 486.922 314.526 487.508 314.526C488.586 314.526 489.471 314.91 490.164 315.678C490.868 316.436 491.22 317.47 491.22 318.782V318.91C491.22 320.233 490.874 321.284 490.18 322.062C489.498 322.841 488.607 323.23 487.508 323.23C486.879 323.23 486.324 323.097 485.844 322.83C485.364 322.553 485.007 322.196 484.772 321.758V325.934H482.836ZM487.028 321.694C487.743 321.694 488.287 321.46 488.66 320.99C489.044 320.521 489.236 319.838 489.236 318.942V318.814C489.236 317.918 489.028 317.236 488.612 316.766C488.207 316.286 487.674 316.046 487.012 316.046C486.319 316.046 485.759 316.286 485.332 316.766C484.916 317.236 484.708 317.918 484.708 318.814V318.942C484.708 319.849 484.911 320.537 485.316 321.006C485.732 321.465 486.303 321.694 487.028 321.694ZM496.297 323.23C495.209 323.23 494.324 322.862 493.641 322.126C492.959 321.38 492.617 320.345 492.617 319.022V318.894C492.617 317.572 492.969 316.516 493.673 315.726C494.377 314.926 495.279 314.526 496.377 314.526C497.615 314.526 498.505 315.012 499.049 315.982V310.83H500.985V323.07H499.049V321.662C498.815 322.1 498.441 322.473 497.929 322.782C497.428 323.081 496.884 323.23 496.297 323.23ZM496.777 321.694C497.481 321.694 498.047 321.46 498.473 320.99C498.9 320.521 499.113 319.833 499.113 318.926V318.798C499.113 317.892 498.916 317.209 498.521 316.75C498.127 316.281 497.572 316.046 496.857 316.046C496.143 316.046 495.588 316.292 495.193 316.782C494.799 317.262 494.601 317.95 494.601 318.846V318.974C494.601 319.86 494.799 320.537 495.193 321.006C495.599 321.465 496.127 321.694 496.777 321.694ZM505.678 323.23C504.857 323.23 504.185 323.028 503.662 322.622C503.14 322.206 502.878 321.582 502.878 320.75C502.878 319.833 503.268 319.161 504.046 318.734C504.825 318.308 505.865 318.094 507.166 318.094H508.206V317.662C508.206 317.086 508.089 316.665 507.854 316.398C507.63 316.121 507.241 315.982 506.686 315.982C505.716 315.982 505.182 316.42 505.086 317.294H503.214C503.289 316.366 503.652 315.673 504.302 315.214C504.964 314.756 505.796 314.526 506.798 314.526C509.028 314.526 510.142 315.545 510.142 317.582V323.07H508.238V322.046C507.641 322.836 506.788 323.23 505.678 323.23ZM506.142 321.838C506.75 321.838 507.246 321.689 507.63 321.39C508.014 321.081 508.206 320.665 508.206 320.142V319.31H507.214C505.604 319.31 504.798 319.764 504.798 320.67C504.798 321.449 505.246 321.838 506.142 321.838ZM515.409 323.214C514.588 323.214 513.959 323.001 513.521 322.574C513.095 322.148 512.881 321.534 512.881 320.734V316.158H511.761V314.702H512.881V312.862H514.817V314.702H516.657V316.158H514.817V320.558C514.817 321.273 515.137 321.63 515.777 321.63C516.151 321.63 516.465 321.577 516.721 321.47V323.006C516.348 323.145 515.911 323.214 515.409 323.214ZM522.348 323.23C521.1 323.23 520.081 322.846 519.292 322.078C518.502 321.31 518.108 320.276 518.108 318.974V318.846C518.108 317.566 518.497 316.526 519.276 315.726C520.065 314.926 521.062 314.526 522.268 314.526C523.398 314.526 524.337 314.878 525.084 315.582C525.841 316.286 526.22 317.342 526.22 318.75V319.31H520.092C520.124 320.11 520.337 320.724 520.732 321.15C521.126 321.577 521.681 321.79 522.396 321.79C523.526 321.79 524.166 321.364 524.316 320.51H526.188C526.049 321.385 525.644 322.057 524.972 322.526C524.3 322.996 523.425 323.23 522.348 323.23ZM520.124 318.014H524.3C524.204 316.628 523.526 315.934 522.268 315.934C521.692 315.934 521.212 316.121 520.828 316.494C520.454 316.857 520.22 317.364 520.124 318.014ZM531.091 323.23C530.014 323.23 529.171 322.99 528.563 322.51C527.955 322.03 527.63 321.348 527.587 320.462H529.411C529.464 320.91 529.619 321.246 529.875 321.47C530.131 321.694 530.531 321.806 531.075 321.806C532.078 321.806 532.579 321.449 532.579 320.734C532.579 320.404 532.44 320.158 532.163 319.998C531.896 319.828 531.438 319.689 530.787 319.582C529.667 319.401 528.883 319.129 528.435 318.766C527.987 318.393 527.763 317.817 527.763 317.038C527.763 316.249 528.072 315.636 528.691 315.198C529.31 314.75 530.046 314.526 530.899 314.526C532.904 314.526 533.998 315.369 534.179 317.054H532.387C532.302 316.67 532.142 316.388 531.907 316.206C531.683 316.025 531.347 315.934 530.899 315.934C530.483 315.934 530.158 316.025 529.923 316.206C529.688 316.388 529.571 316.628 529.571 316.926C529.571 317.225 529.694 317.449 529.939 317.598C530.184 317.748 530.638 317.881 531.299 317.998C532.387 318.169 533.182 318.43 533.683 318.782C534.184 319.134 534.435 319.726 534.435 320.558C534.435 321.412 534.142 322.073 533.555 322.542C532.979 323.001 532.158 323.23 531.091 323.23Z" fill="white"/>
</g>
</g>
<g clip-path="url(#clip7_62_2950)">
<path d="M666.54 128.07L671.32 113.77H674.8L679.52 128.07H676.76L675.62 124.53H670.16L669.04 128.07H666.54ZM672.9 115.95L670.78 122.59H675L672.9 115.95ZM687.443 128.27C686.643 128.27 685.943 128.097 685.343 127.75C684.756 127.404 684.316 126.95 684.023 126.39V128.07H681.603V112.77H684.023V119.29C684.329 118.757 684.789 118.31 685.403 117.95C686.029 117.577 686.709 117.39 687.443 117.39C688.789 117.39 689.896 117.87 690.763 118.83C691.643 119.777 692.083 121.07 692.083 122.71V122.87C692.083 124.524 691.649 125.837 690.783 126.81C689.929 127.784 688.816 128.27 687.443 128.27ZM686.843 126.35C687.736 126.35 688.416 126.057 688.883 125.47C689.363 124.884 689.603 124.03 689.603 122.91V122.75C689.603 121.63 689.343 120.777 688.823 120.19C688.316 119.59 687.649 119.29 686.823 119.29C685.956 119.29 685.256 119.59 684.723 120.19C684.203 120.777 683.943 121.63 683.943 122.75V122.91C683.943 124.044 684.196 124.904 684.703 125.49C685.223 126.064 685.936 126.35 686.843 126.35ZM699.039 126.39C699.932 126.39 700.632 126.084 701.139 125.47C701.659 124.844 701.919 123.99 701.919 122.91V122.77C701.919 121.69 701.659 120.844 701.139 120.23C700.632 119.604 699.932 119.29 699.039 119.29C698.132 119.29 697.419 119.597 696.899 120.21C696.392 120.824 696.139 121.67 696.139 122.75V122.91C696.139 123.99 696.392 124.844 696.899 125.47C697.419 126.084 698.132 126.39 699.039 126.39ZM702.879 126.79C701.865 127.777 700.579 128.27 699.019 128.27C697.459 128.27 696.172 127.777 695.159 126.79C694.159 125.804 693.659 124.524 693.659 122.95V122.79C693.659 121.19 694.165 119.89 695.179 118.89C696.192 117.89 697.479 117.39 699.039 117.39C700.585 117.39 701.865 117.884 702.879 118.87C703.892 119.857 704.399 121.144 704.399 122.73V122.89C704.399 124.504 703.892 125.804 702.879 126.79ZM710.185 128.27C709.092 128.27 708.219 127.944 707.565 127.29C706.912 126.637 706.585 125.644 706.585 124.31V117.61H709.005V124.03C709.005 124.817 709.172 125.397 709.505 125.77C709.839 126.144 710.359 126.33 711.065 126.33C711.759 126.33 712.339 126.11 712.805 125.67C713.272 125.23 713.505 124.617 713.505 123.83V117.61H715.925V128.07H713.505V126.43C713.225 126.977 712.799 127.424 712.225 127.77C711.665 128.104 710.985 128.27 710.185 128.27ZM722.455 128.25C721.428 128.25 720.641 127.984 720.095 127.45C719.561 126.917 719.295 126.15 719.295 125.15V119.43H717.895V117.61H719.295V115.31H721.715V117.61H724.015V119.43H721.715V124.93C721.715 125.824 722.115 126.27 722.915 126.27C723.381 126.27 723.775 126.204 724.095 126.07V127.99C723.628 128.164 723.081 128.25 722.455 128.25Z" fill="white"/>
<g clip-path="url(#clip8_62_2950)">
<path d="M667.312 194.07V182.63H669.44V187.494H674.576V182.63H676.72V194.07H674.576V189.206H669.44V194.07H667.312ZM683.034 192.726C683.748 192.726 684.308 192.481 684.714 191.99C685.13 191.489 685.338 190.806 685.338 189.942V189.83C685.338 188.966 685.13 188.289 684.714 187.798C684.308 187.297 683.748 187.046 683.034 187.046C682.308 187.046 681.737 187.292 681.322 187.782C680.916 188.273 680.714 188.95 680.714 189.814V189.942C680.714 190.806 680.916 191.489 681.322 191.99C681.737 192.481 682.308 192.726 683.034 192.726ZM686.106 193.046C685.295 193.836 684.266 194.23 683.017 194.23C681.769 194.23 680.74 193.836 679.929 193.046C679.129 192.257 678.729 191.233 678.729 189.974V189.846C678.729 188.566 679.135 187.526 679.945 186.726C680.756 185.926 681.786 185.526 683.034 185.526C684.271 185.526 685.295 185.921 686.106 186.71C686.916 187.5 687.321 188.529 687.321 189.798V189.926C687.321 191.217 686.916 192.257 686.106 193.046ZM689.271 194.07V185.702H691.207V186.982C691.42 186.566 691.751 186.22 692.199 185.942C692.647 185.665 693.164 185.526 693.751 185.526C694.924 185.526 695.713 186.028 696.119 187.03C696.428 186.54 696.839 186.166 697.351 185.91C697.863 185.654 698.396 185.526 698.951 185.526C699.772 185.526 700.439 185.798 700.951 186.342C701.473 186.876 701.735 187.686 701.735 188.774V194.07H699.799V188.902C699.799 187.729 699.303 187.142 698.311 187.142C697.799 187.142 697.361 187.313 696.999 187.654C696.647 187.985 696.471 188.454 696.471 189.062V194.07H694.535V188.902C694.535 187.729 694.039 187.142 693.047 187.142C692.535 187.142 692.097 187.313 691.735 187.654C691.383 187.985 691.207 188.454 691.207 189.062V194.07H689.271ZM707.838 194.23C706.59 194.23 705.572 193.846 704.782 193.078C703.993 192.31 703.598 191.276 703.598 189.974V189.846C703.598 188.566 703.988 187.526 704.766 186.726C705.556 185.926 706.553 185.526 707.758 185.526C708.889 185.526 709.828 185.878 710.574 186.582C711.332 187.286 711.71 188.342 711.71 189.75V190.31H705.582C705.614 191.11 705.828 191.724 706.222 192.15C706.617 192.577 707.172 192.79 707.886 192.79C709.017 192.79 709.657 192.364 709.806 191.51H711.678C711.54 192.385 711.134 193.057 710.462 193.526C709.79 193.996 708.916 194.23 707.838 194.23ZM705.614 189.014H709.79C709.694 187.628 709.017 186.934 707.758 186.934C707.182 186.934 706.702 187.121 706.318 187.494C705.945 187.857 705.71 188.364 705.614 189.014Z" fill="white"/>
<path d="M667.312 237.07V225.63H674.464V227.31H669.44V230.446H673.472V232.046H669.44V235.39H674.736V237.07H667.312ZM675.958 237.07L678.87 232.782L676.15 228.702H678.39L680.134 231.406L681.862 228.702H683.894L681.19 232.638L684.182 237.07H681.926L679.974 234.046L677.974 237.07H675.958ZM687.978 237.23C687.157 237.23 686.485 237.028 685.962 236.622C685.44 236.206 685.178 235.582 685.178 234.75C685.178 233.833 685.568 233.161 686.346 232.734C687.125 232.308 688.165 232.094 689.466 232.094H690.506V231.662C690.506 231.086 690.389 230.665 690.154 230.398C689.93 230.121 689.541 229.982 688.986 229.982C688.016 229.982 687.482 230.42 687.386 231.294H685.514C685.589 230.366 685.952 229.673 686.602 229.214C687.264 228.756 688.096 228.526 689.098 228.526C691.328 228.526 692.442 229.545 692.442 231.582V237.07H690.538V236.046C689.941 236.836 689.088 237.23 687.978 237.23ZM688.442 235.838C689.05 235.838 689.546 235.689 689.93 235.39C690.314 235.081 690.506 234.665 690.506 234.142V233.31H689.514C687.904 233.31 687.098 233.764 687.098 234.67C687.098 235.449 687.546 235.838 688.442 235.838ZM694.861 237.07V228.702H696.797V229.982C697.011 229.566 697.341 229.22 697.789 228.942C698.237 228.665 698.755 228.526 699.341 228.526C700.515 228.526 701.304 229.028 701.709 230.03C702.019 229.54 702.429 229.166 702.941 228.91C703.453 228.654 703.987 228.526 704.541 228.526C705.363 228.526 706.029 228.798 706.541 229.342C707.064 229.876 707.325 230.686 707.325 231.774V237.07H705.389V231.902C705.389 230.729 704.893 230.142 703.901 230.142C703.389 230.142 702.952 230.313 702.589 230.654C702.237 230.985 702.061 231.454 702.061 232.062V237.07H700.125V231.902C700.125 230.729 699.629 230.142 698.637 230.142C698.125 230.142 697.688 230.313 697.325 230.654C696.973 230.985 696.797 231.454 696.797 232.062V237.07H694.861ZM709.749 239.934V228.702H711.685V230.046C711.93 229.62 712.298 229.262 712.789 228.974C713.29 228.676 713.834 228.526 714.421 228.526C715.498 228.526 716.384 228.91 717.077 229.678C717.781 230.436 718.133 231.47 718.133 232.782V232.91C718.133 234.233 717.786 235.284 717.093 236.062C716.41 236.841 715.52 237.23 714.421 237.23C713.792 237.23 713.237 237.097 712.757 236.83C712.277 236.553 711.92 236.196 711.685 235.758V239.934H709.749ZM713.941 235.694C714.656 235.694 715.2 235.46 715.573 234.99C715.957 234.521 716.149 233.838 716.149 232.942V232.814C716.149 231.918 715.941 231.236 715.525 230.766C715.12 230.286 714.586 230.046 713.925 230.046C713.232 230.046 712.672 230.286 712.245 230.766C711.829 231.236 711.621 231.918 711.621 232.814V232.942C711.621 233.849 711.824 234.537 712.229 235.006C712.645 235.465 713.216 235.694 713.941 235.694ZM720.122 237.07V224.83H722.058V237.07H720.122ZM728.298 237.23C727.05 237.23 726.031 236.846 725.242 236.078C724.452 235.31 724.058 234.276 724.058 232.974V232.846C724.058 231.566 724.447 230.526 725.226 229.726C726.015 228.926 727.012 228.526 728.218 228.526C729.348 228.526 730.287 228.878 731.034 229.582C731.791 230.286 732.17 231.342 732.17 232.75V233.31H726.042C726.074 234.11 726.287 234.724 726.682 235.15C727.076 235.577 727.631 235.79 728.346 235.79C729.476 235.79 730.116 235.364 730.266 234.51H732.138C731.999 235.385 731.594 236.057 730.922 236.526C730.25 236.996 729.375 237.23 728.298 237.23ZM726.074 232.014H730.25C730.154 230.628 729.476 229.934 728.218 229.934C727.642 229.934 727.162 230.121 726.778 230.494C726.404 230.857 726.17 231.364 726.074 232.014ZM737.041 237.23C735.964 237.23 735.121 236.99 734.513 236.51C733.905 236.03 733.58 235.348 733.537 234.462H735.361C735.414 234.91 735.569 235.246 735.825 235.47C736.081 235.694 736.481 235.806 737.025 235.806C738.028 235.806 738.529 235.449 738.529 234.734C738.529 234.404 738.39 234.158 738.113 233.998C737.846 233.828 737.388 233.689 736.737 233.582C735.617 233.401 734.833 233.129 734.385 232.766C733.937 232.393 733.713 231.817 733.713 231.038C733.713 230.249 734.022 229.636 734.641 229.198C735.26 228.75 735.996 228.526 736.849 228.526C738.854 228.526 739.948 229.369 740.129 231.054H738.337C738.252 230.67 738.092 230.388 737.857 230.206C737.633 230.025 737.297 229.934 736.849 229.934C736.433 229.934 736.108 230.025 735.873 230.206C735.638 230.388 735.521 230.628 735.521 230.926C735.521 231.225 735.644 231.449 735.889 231.598C736.134 231.748 736.588 231.881 737.249 231.998C738.337 232.169 739.132 232.43 739.633 232.782C740.134 233.134 740.385 233.726 740.385 234.558C740.385 235.412 740.092 236.073 739.505 236.542C738.929 237.001 738.108 237.23 737.041 237.23Z" fill="white"/>
<path d="M667.312 280.07V268.63H670.992C672.315 268.63 673.349 268.929 674.096 269.526C674.853 270.113 675.232 270.993 675.232 272.166V272.23C675.232 273.393 674.853 274.268 674.096 274.854C673.339 275.43 672.32 275.718 671.04 275.718H669.44V280.07H667.312ZM669.44 274.182H670.992C671.696 274.182 672.229 274.017 672.592 273.686C672.965 273.345 673.152 272.86 673.152 272.23V272.166C673.152 270.908 672.432 270.278 670.992 270.278H669.44V274.182ZM677.102 280.07V271.702H679.038V273.27C679.593 272.15 680.499 271.585 681.758 271.574V273.382C680.851 273.393 680.169 273.574 679.71 273.926C679.262 274.278 679.038 274.876 679.038 275.718V280.07H677.102ZM683.709 280.07V271.702H685.645V280.07H683.709ZM685.469 270.006C685.245 270.22 684.973 270.326 684.653 270.326C684.333 270.326 684.061 270.22 683.837 270.006C683.613 269.793 683.501 269.532 683.501 269.222C683.501 268.902 683.613 268.636 683.837 268.422C684.061 268.209 684.333 268.102 684.653 268.102C684.973 268.102 685.245 268.209 685.469 268.422C685.693 268.636 685.805 268.902 685.805 269.222C685.805 269.532 685.693 269.793 685.469 270.006ZM691.869 280.23C690.642 280.23 689.629 279.852 688.829 279.094C688.04 278.326 687.645 277.292 687.645 275.99V275.862C687.645 274.561 688.05 273.516 688.861 272.726C689.672 271.926 690.674 271.526 691.869 271.526C692.893 271.526 693.757 271.782 694.461 272.294C695.176 272.796 695.586 273.585 695.693 274.662H693.821C693.672 273.606 693.032 273.078 691.901 273.078C691.229 273.078 690.68 273.324 690.253 273.814C689.837 274.305 689.629 274.977 689.629 275.83V275.958C689.629 276.854 689.832 277.542 690.237 278.022C690.653 278.502 691.224 278.742 691.949 278.742C692.482 278.742 692.936 278.588 693.309 278.278C693.693 277.958 693.912 277.516 693.965 276.95H695.741C695.666 277.932 695.282 278.726 694.589 279.334C693.896 279.932 692.989 280.23 691.869 280.23ZM697.656 280.07V271.702H699.592V280.07H697.656ZM699.416 270.006C699.192 270.22 698.92 270.326 698.6 270.326C698.28 270.326 698.008 270.22 697.784 270.006C697.56 269.793 697.448 269.532 697.448 269.222C697.448 268.902 697.56 268.636 697.784 268.422C698.008 268.209 698.28 268.102 698.6 268.102C698.92 268.102 699.192 268.209 699.416 268.422C699.64 268.636 699.752 268.902 699.752 269.222C699.752 269.532 699.64 269.793 699.416 270.006ZM702.152 280.07V271.702H704.088V273.03C704.301 272.593 704.643 272.236 705.112 271.958C705.581 271.67 706.141 271.526 706.792 271.526C707.677 271.526 708.376 271.798 708.888 272.342C709.4 272.876 709.656 273.697 709.656 274.806V280.07H707.72V274.982C707.72 274.353 707.587 273.889 707.32 273.59C707.053 273.292 706.632 273.142 706.056 273.142C705.48 273.142 705.005 273.318 704.632 273.67C704.269 274.012 704.088 274.502 704.088 275.142V280.07H702.152ZM715.654 283.142C714.406 283.142 713.452 282.892 712.79 282.39C712.129 281.889 711.74 281.212 711.622 280.358H713.574C713.745 281.233 714.433 281.67 715.638 281.67C717.196 281.67 717.974 280.918 717.974 279.414V278.182C717.729 278.609 717.356 278.977 716.854 279.286C716.364 279.585 715.825 279.734 715.238 279.734C714.172 279.734 713.286 279.366 712.582 278.63C711.878 277.894 711.526 276.934 711.526 275.75V275.638C711.526 274.465 711.884 273.489 712.598 272.71C713.313 271.921 714.209 271.526 715.286 271.526C716.524 271.526 717.42 272.012 717.974 272.982V271.702H719.91V279.446C719.9 280.652 719.516 281.569 718.758 282.198C718.012 282.828 716.977 283.142 715.654 283.142ZM715.718 278.246C716.401 278.246 716.956 278.017 717.382 277.558C717.82 277.1 718.038 276.476 718.038 275.686V275.574C718.038 274.785 717.836 274.166 717.43 273.718C717.025 273.27 716.476 273.046 715.782 273.046C715.078 273.046 714.524 273.281 714.118 273.75C713.713 274.22 713.51 274.838 713.51 275.606V275.734C713.51 276.492 713.718 277.1 714.134 277.558C714.55 278.017 715.078 278.246 715.718 278.246Z" fill="white"/>
<path d="M671.712 323.23C670.272 323.23 669.163 322.846 668.384 322.078C667.605 321.3 667.216 320.18 667.216 318.718V311.63H669.36V318.558C669.36 319.614 669.541 320.372 669.904 320.83C670.277 321.289 670.885 321.518 671.728 321.518C672.581 321.518 673.205 321.289 673.6 320.83C674.005 320.361 674.208 319.556 674.208 318.414V311.63H676.352V318.59C676.352 320.094 675.952 321.246 675.152 322.046C674.363 322.836 673.216 323.23 671.712 323.23ZM678.836 325.934V314.702H680.772V316.046C681.018 315.62 681.386 315.262 681.876 314.974C682.378 314.676 682.922 314.526 683.508 314.526C684.586 314.526 685.471 314.91 686.164 315.678C686.868 316.436 687.22 317.47 687.22 318.782V318.91C687.22 320.233 686.874 321.284 686.18 322.062C685.498 322.841 684.607 323.23 683.508 323.23C682.879 323.23 682.324 323.097 681.844 322.83C681.364 322.553 681.007 322.196 680.772 321.758V325.934H678.836ZM683.028 321.694C683.743 321.694 684.287 321.46 684.66 320.99C685.044 320.521 685.236 319.838 685.236 318.942V318.814C685.236 317.918 685.028 317.236 684.612 316.766C684.207 316.286 683.674 316.046 683.012 316.046C682.319 316.046 681.759 316.286 681.332 316.766C680.916 317.236 680.708 317.918 680.708 318.814V318.942C680.708 319.849 680.911 320.537 681.316 321.006C681.732 321.465 682.303 321.694 683.028 321.694ZM692.297 323.23C691.209 323.23 690.324 322.862 689.641 322.126C688.959 321.38 688.617 320.345 688.617 319.022V318.894C688.617 317.572 688.969 316.516 689.673 315.726C690.377 314.926 691.279 314.526 692.377 314.526C693.615 314.526 694.505 315.012 695.049 315.982V310.83H696.985V323.07H695.049V321.662C694.815 322.1 694.441 322.473 693.929 322.782C693.428 323.081 692.884 323.23 692.297 323.23ZM692.777 321.694C693.481 321.694 694.047 321.46 694.473 320.99C694.9 320.521 695.113 319.833 695.113 318.926V318.798C695.113 317.892 694.916 317.209 694.521 316.75C694.127 316.281 693.572 316.046 692.857 316.046C692.143 316.046 691.588 316.292 691.193 316.782C690.799 317.262 690.601 317.95 690.601 318.846V318.974C690.601 319.86 690.799 320.537 691.193 321.006C691.599 321.465 692.127 321.694 692.777 321.694ZM701.678 323.23C700.857 323.23 700.185 323.028 699.662 322.622C699.14 322.206 698.878 321.582 698.878 320.75C698.878 319.833 699.268 319.161 700.046 318.734C700.825 318.308 701.865 318.094 703.166 318.094H704.206V317.662C704.206 317.086 704.089 316.665 703.854 316.398C703.63 316.121 703.241 315.982 702.686 315.982C701.716 315.982 701.182 316.42 701.086 317.294H699.214C699.289 316.366 699.652 315.673 700.302 315.214C700.964 314.756 701.796 314.526 702.798 314.526C705.028 314.526 706.142 315.545 706.142 317.582V323.07H704.238V322.046C703.641 322.836 702.788 323.23 701.678 323.23ZM702.142 321.838C702.75 321.838 703.246 321.689 703.63 321.39C704.014 321.081 704.206 320.665 704.206 320.142V319.31H703.214C701.604 319.31 700.798 319.764 700.798 320.67C700.798 321.449 701.246 321.838 702.142 321.838ZM711.409 323.214C710.588 323.214 709.959 323.001 709.521 322.574C709.095 322.148 708.881 321.534 708.881 320.734V316.158H707.761V314.702H708.881V312.862H710.817V314.702H712.657V316.158H710.817V320.558C710.817 321.273 711.137 321.63 711.777 321.63C712.151 321.63 712.465 321.577 712.721 321.47V323.006C712.348 323.145 711.911 323.214 711.409 323.214ZM718.348 323.23C717.1 323.23 716.081 322.846 715.292 322.078C714.502 321.31 714.108 320.276 714.108 318.974V318.846C714.108 317.566 714.497 316.526 715.276 315.726C716.065 314.926 717.062 314.526 718.268 314.526C719.398 314.526 720.337 314.878 721.084 315.582C721.841 316.286 722.22 317.342 722.22 318.75V319.31H716.092C716.124 320.11 716.337 320.724 716.732 321.15C717.126 321.577 717.681 321.79 718.396 321.79C719.526 321.79 720.166 321.364 720.316 320.51H722.188C722.049 321.385 721.644 322.057 720.972 322.526C720.3 322.996 719.425 323.23 718.348 323.23ZM716.124 318.014H720.3C720.204 316.628 719.526 315.934 718.268 315.934C717.692 315.934 717.212 316.121 716.828 316.494C716.454 316.857 716.22 317.364 716.124 318.014ZM727.091 323.23C726.014 323.23 725.171 322.99 724.563 322.51C723.955 322.03 723.63 321.348 723.587 320.462H725.411C725.464 320.91 725.619 321.246 725.875 321.47C726.131 321.694 726.531 321.806 727.075 321.806C728.078 321.806 728.579 321.449 728.579 320.734C728.579 320.404 728.44 320.158 728.163 319.998C727.896 319.828 727.438 319.689 726.787 319.582C725.667 319.401 724.883 319.129 724.435 318.766C723.987 318.393 723.763 317.817 723.763 317.038C723.763 316.249 724.072 315.636 724.691 315.198C725.31 314.75 726.046 314.526 726.899 314.526C728.904 314.526 729.998 315.369 730.179 317.054H728.387C728.302 316.67 728.142 316.388 727.907 316.206C727.683 316.025 727.347 315.934 726.899 315.934C726.483 315.934 726.158 316.025 725.923 316.206C725.688 316.388 725.571 316.628 725.571 316.926C725.571 317.225 725.694 317.449 725.939 317.598C726.184 317.748 726.638 317.881 727.299 317.998C728.387 318.169 729.182 318.43 729.683 318.782C730.184 319.134 730.435 319.726 730.435 320.558C730.435 321.412 730.142 322.073 729.555 322.542C728.979 323.001 728.158 323.23 727.091 323.23Z" fill="white"/>
</g>
</g>
</g>
</g>
<g clip-path="url(#clip9_62_2950)">
<g clip-path="url(#clip10_62_2950)">
<path d="M1009 133.904C1013.23 133.904 1016.67 130.465 1016.67 126.237C1016.67 122.009 1013.23 118.57 1009 118.57C1004.77 118.57 1001.33 122.009 1001.33 126.237C1001.33 130.465 1004.77 133.904 1009 133.904ZM1009 122.404C1011.11 122.404 1012.83 124.123 1012.83 126.237C1012.83 128.351 1011.11 130.07 1009 130.07C1006.89 130.07 1005.17 128.351 1005.17 126.237C1005.17 124.123 1006.89 122.404 1009 122.404Z" fill="black"/>
<path d="M1007.89 148.881C1008.21 149.112 1008.6 149.237 1009 149.237C1009.4 149.237 1009.79 149.112 1010.11 148.881C1010.69 148.469 1024.39 138.58 1024.33 126.237C1024.33 117.783 1017.45 110.904 1009 110.904C1000.55 110.904 993.667 117.783 993.667 126.228C993.611 138.58 1007.31 148.469 1007.89 148.881ZM1009 114.737C1015.34 114.737 1020.5 119.895 1020.5 126.247C1020.54 134.753 1012.09 142.391 1009 144.896C1005.91 142.389 997.46 134.749 997.5 126.237C997.5 119.895 1002.66 114.737 1009 114.737Z" fill="white"/>
<path d="M1042.11 135.07L1045.79 125.358H1040.46V123.63H1048.46V123.886L1044.3 135.07H1042.11ZM1053.95 135.07V132.75H1048.29V131.998L1053.35 123.63H1056.02V131.166H1057.55V132.75H1056.02V135.07H1053.95ZM1050.56 131.166H1053.99V125.246L1050.56 131.166ZM1063.27 135.23C1062.06 135.23 1061.04 134.932 1060.21 134.334C1059.39 133.737 1058.98 132.905 1058.98 131.838C1058.98 131.134 1059.17 130.532 1059.56 130.03C1059.94 129.529 1060.46 129.161 1061.12 128.926C1059.99 128.478 1059.43 127.684 1059.43 126.542C1059.43 125.614 1059.81 124.873 1060.56 124.318C1061.32 123.753 1062.22 123.47 1063.27 123.47C1064.33 123.47 1065.24 123.748 1065.97 124.302C1066.72 124.857 1067.09 125.593 1067.09 126.51C1067.09 127.62 1066.53 128.42 1065.4 128.91C1066.08 129.156 1066.6 129.524 1066.96 130.014C1067.34 130.494 1067.52 131.081 1067.52 131.774C1067.52 132.862 1067.12 133.71 1066.31 134.318C1065.5 134.926 1064.48 135.23 1063.27 135.23ZM1063.27 133.63C1063.9 133.63 1064.41 133.454 1064.8 133.102C1065.2 132.75 1065.4 132.265 1065.4 131.646C1065.4 131.038 1065.2 130.564 1064.8 130.222C1064.41 129.87 1063.9 129.694 1063.28 129.694C1062.68 129.694 1062.16 129.87 1061.75 130.222C1061.33 130.564 1061.12 131.044 1061.12 131.662C1061.12 132.281 1061.33 132.766 1061.73 133.118C1062.15 133.46 1062.66 133.63 1063.27 133.63ZM1063.3 128.302C1063.83 128.302 1064.26 128.153 1064.58 127.854C1064.91 127.556 1065.08 127.15 1065.08 126.638C1065.08 126.158 1064.91 125.769 1064.56 125.47C1064.22 125.161 1063.79 125.006 1063.27 125.006C1062.75 125.006 1062.31 125.156 1061.97 125.454C1061.63 125.753 1061.46 126.153 1061.46 126.654C1061.46 127.156 1061.64 127.556 1061.99 127.854C1062.35 128.153 1062.79 128.302 1063.3 128.302ZM1073.98 133.534C1075.72 133.534 1076.59 132.222 1076.59 129.598V129.038C1076.59 127.812 1076.36 126.857 1075.9 126.174C1075.44 125.481 1074.79 125.134 1073.95 125.134C1073.09 125.134 1072.43 125.47 1071.97 126.142C1071.51 126.814 1071.28 127.785 1071.28 129.054V129.63C1071.28 130.91 1071.51 131.881 1071.98 132.542C1072.45 133.204 1073.12 133.534 1073.98 133.534ZM1073.93 135.23C1072.47 135.23 1071.31 134.729 1070.43 133.726C1069.57 132.724 1069.13 131.364 1069.13 129.646V129.07C1069.13 127.353 1069.57 125.993 1070.45 124.99C1071.32 123.977 1072.48 123.47 1073.93 123.47C1075.4 123.47 1076.56 123.972 1077.42 124.974C1078.29 125.966 1078.72 127.316 1078.72 129.022V129.598C1078.72 131.326 1078.29 132.697 1077.44 133.71C1076.59 134.724 1075.42 135.23 1073.93 135.23ZM1085.06 135.07V123.63H1087.91L1090.92 131.438L1093.86 123.63H1096.68V135.07H1094.55V126.43L1091.14 135.07H1090.45L1086.98 126.43V135.07H1085.06ZM1103 133.726C1103.72 133.726 1104.28 133.481 1104.68 132.99C1105.1 132.489 1105.31 131.806 1105.31 130.942V130.83C1105.31 129.966 1105.1 129.289 1104.68 128.798C1104.28 128.297 1103.72 128.046 1103 128.046C1102.28 128.046 1101.71 128.292 1101.29 128.782C1100.88 129.273 1100.68 129.95 1100.68 130.814V130.942C1100.68 131.806 1100.88 132.489 1101.29 132.99C1101.71 133.481 1102.28 133.726 1103 133.726ZM1106.07 134.046C1105.26 134.836 1104.23 135.23 1102.99 135.23C1101.74 135.23 1100.71 134.836 1099.9 134.046C1099.1 133.257 1098.7 132.233 1098.7 130.974V130.846C1098.7 129.566 1099.1 128.526 1099.91 127.726C1100.72 126.926 1101.75 126.526 1103 126.526C1104.24 126.526 1105.26 126.921 1106.07 127.71C1106.88 128.5 1107.29 129.529 1107.29 130.798V130.926C1107.29 132.217 1106.88 133.257 1106.07 134.046ZM1112.9 135.23C1111.68 135.23 1110.66 134.852 1109.86 134.094C1109.07 133.326 1108.68 132.292 1108.68 130.99V130.862C1108.68 129.561 1109.08 128.516 1109.9 127.726C1110.71 126.926 1111.71 126.526 1112.9 126.526C1113.93 126.526 1114.79 126.782 1115.5 127.294C1116.21 127.796 1116.62 128.585 1116.73 129.662H1114.86C1114.71 128.606 1114.07 128.078 1112.94 128.078C1112.26 128.078 1111.71 128.324 1111.29 128.814C1110.87 129.305 1110.66 129.977 1110.66 130.83V130.958C1110.66 131.854 1110.87 132.542 1111.27 133.022C1111.69 133.502 1112.26 133.742 1112.98 133.742C1113.52 133.742 1113.97 133.588 1114.34 133.278C1114.73 132.958 1114.95 132.516 1115 131.95H1116.78C1116.7 132.932 1116.32 133.726 1115.62 134.334C1114.93 134.932 1114.02 135.23 1112.9 135.23ZM1118.64 135.07V122.83H1120.58V130.382L1123.57 126.702H1125.68L1122.43 130.542L1125.95 135.07H1123.71L1120.58 130.958V135.07H1118.64ZM1127.53 135.07V126.702H1129.47V135.07H1127.53ZM1129.29 125.006C1129.07 125.22 1128.8 125.326 1128.48 125.326C1128.16 125.326 1127.88 125.22 1127.66 125.006C1127.44 124.793 1127.32 124.532 1127.32 124.222C1127.32 123.902 1127.44 123.636 1127.66 123.422C1127.88 123.209 1128.16 123.102 1128.48 123.102C1128.8 123.102 1129.07 123.209 1129.29 123.422C1129.52 123.636 1129.63 123.902 1129.63 124.222C1129.63 124.532 1129.52 124.793 1129.29 125.006ZM1132.03 135.07V126.702H1133.96V128.03C1134.18 127.593 1134.52 127.236 1134.99 126.958C1135.46 126.67 1136.02 126.526 1136.67 126.526C1137.55 126.526 1138.25 126.798 1138.76 127.342C1139.28 127.876 1139.53 128.697 1139.53 129.806V135.07H1137.6V129.982C1137.6 129.353 1137.46 128.889 1137.2 128.59C1136.93 128.292 1136.51 128.142 1135.93 128.142C1135.36 128.142 1134.88 128.318 1134.51 128.67C1134.14 129.012 1133.96 129.502 1133.96 130.142V135.07H1132.03ZM1145.53 138.142C1144.28 138.142 1143.33 137.892 1142.67 137.39C1142 136.889 1141.61 136.212 1141.5 135.358H1143.45C1143.62 136.233 1144.31 136.67 1145.51 136.67C1147.07 136.67 1147.85 135.918 1147.85 134.414V133.182C1147.6 133.609 1147.23 133.977 1146.73 134.286C1146.24 134.585 1145.7 134.734 1145.11 134.734C1144.05 134.734 1143.16 134.366 1142.46 133.63C1141.75 132.894 1141.4 131.934 1141.4 130.75V130.638C1141.4 129.465 1141.76 128.489 1142.47 127.71C1143.19 126.921 1144.08 126.526 1145.16 126.526C1146.4 126.526 1147.29 127.012 1147.85 127.982V126.702H1149.79V134.446C1149.77 135.652 1149.39 136.569 1148.63 137.198C1147.89 137.828 1146.85 138.142 1145.53 138.142ZM1145.59 133.246C1146.28 133.246 1146.83 133.017 1147.26 132.558C1147.69 132.1 1147.91 131.476 1147.91 130.686V130.574C1147.91 129.785 1147.71 129.166 1147.31 128.718C1146.9 128.27 1146.35 128.046 1145.66 128.046C1144.95 128.046 1144.4 128.281 1143.99 128.75C1143.59 129.22 1143.39 129.838 1143.39 130.606V130.734C1143.39 131.492 1143.59 132.1 1144.01 132.558C1144.43 133.017 1144.95 133.246 1145.59 133.246ZM1156.96 135.23C1156.32 135.23 1155.76 135.092 1155.28 134.814C1154.81 134.537 1154.46 134.174 1154.22 133.726V135.07H1152.29V122.83H1154.22V128.046C1154.47 127.62 1154.84 127.262 1155.33 126.974C1155.83 126.676 1156.37 126.526 1156.96 126.526C1158.04 126.526 1158.92 126.91 1159.61 127.678C1160.32 128.436 1160.67 129.47 1160.67 130.782V130.91C1160.67 132.233 1160.32 133.284 1159.63 134.062C1158.95 134.841 1158.06 135.23 1156.96 135.23ZM1156.48 133.694C1157.19 133.694 1157.74 133.46 1158.11 132.99C1158.49 132.521 1158.69 131.838 1158.69 130.942V130.814C1158.69 129.918 1158.48 129.236 1158.06 128.766C1157.66 128.286 1157.12 128.046 1156.46 128.046C1155.77 128.046 1155.21 128.286 1154.78 128.766C1154.37 129.236 1154.16 129.918 1154.16 130.814V130.942C1154.16 131.849 1154.36 132.537 1154.77 133.006C1155.18 133.465 1155.75 133.694 1156.48 133.694ZM1162.66 135.07V126.702H1164.6V135.07H1162.66ZM1164.42 125.006C1164.2 125.22 1163.92 125.326 1163.6 125.326C1163.28 125.326 1163.01 125.22 1162.79 125.006C1162.56 124.793 1162.45 124.532 1162.45 124.222C1162.45 123.902 1162.56 123.636 1162.79 123.422C1163.01 123.209 1163.28 123.102 1163.6 123.102C1163.92 123.102 1164.2 123.209 1164.42 123.422C1164.64 123.636 1164.76 123.902 1164.76 124.222C1164.76 124.532 1164.64 124.793 1164.42 125.006ZM1167.16 135.07V126.702H1169.09V128.27C1169.65 127.15 1170.55 126.585 1171.81 126.574V128.382C1170.9 128.393 1170.22 128.574 1169.76 128.926C1169.32 129.278 1169.09 129.876 1169.09 130.718V135.07H1167.16ZM1176.69 135.23C1175.61 135.23 1174.72 134.862 1174.04 134.126C1173.36 133.38 1173.01 132.345 1173.01 131.022V130.894C1173.01 129.572 1173.37 128.516 1174.07 127.726C1174.77 126.926 1175.68 126.526 1176.77 126.526C1178.01 126.526 1178.9 127.012 1179.45 127.982V122.83H1181.38V135.07H1179.45V133.662C1179.21 134.1 1178.84 134.473 1178.33 134.782C1177.82 135.081 1177.28 135.23 1176.69 135.23ZM1177.17 133.694C1177.88 133.694 1178.44 133.46 1178.87 132.99C1179.3 132.521 1179.51 131.833 1179.51 130.926V130.798C1179.51 129.892 1179.31 129.209 1178.92 128.75C1178.52 128.281 1177.97 128.046 1177.25 128.046C1176.54 128.046 1175.98 128.292 1175.59 128.782C1175.2 129.262 1175 129.95 1175 130.846V130.974C1175 131.86 1175.2 132.537 1175.59 133.006C1176 133.465 1176.52 133.694 1177.17 133.694ZM1188.06 135.07V123.63H1190.18V128.494H1195.32V123.63H1197.46V135.07H1195.32V130.206H1190.18V135.07H1188.06ZM1200.16 135.07V126.702H1202.1V135.07H1200.16ZM1201.92 125.006C1201.7 125.22 1201.42 125.326 1201.1 125.326C1200.78 125.326 1200.51 125.22 1200.29 125.006C1200.06 124.793 1199.95 124.532 1199.95 124.222C1199.95 123.902 1200.06 123.636 1200.29 123.422C1200.51 123.209 1200.78 123.102 1201.1 123.102C1201.42 123.102 1201.7 123.209 1201.92 123.422C1202.14 123.636 1202.26 123.902 1202.26 124.222C1202.26 124.532 1202.14 124.793 1201.92 125.006ZM1204.7 135.07V122.83H1206.64V135.07H1204.7ZM1209.25 135.07V122.83H1211.18V135.07H1209.25ZM1220.56 135.23C1219.68 135.23 1218.98 134.969 1218.46 134.446C1217.94 133.924 1217.68 133.129 1217.68 132.062V126.702H1219.61V131.838C1219.61 132.468 1219.74 132.932 1220.01 133.23C1220.28 133.529 1220.69 133.678 1221.26 133.678C1221.81 133.678 1222.28 133.502 1222.65 133.15C1223.02 132.798 1223.21 132.308 1223.21 131.678V126.702H1225.15V135.07H1223.21V133.758C1222.99 134.196 1222.65 134.553 1222.19 134.83C1221.74 135.097 1221.2 135.23 1220.56 135.23ZM1227.64 135.07V126.702H1229.58V128.03C1229.79 127.593 1230.13 127.236 1230.6 126.958C1231.07 126.67 1231.63 126.526 1232.28 126.526C1233.17 126.526 1233.87 126.798 1234.38 127.342C1234.89 127.876 1235.15 128.697 1235.15 129.806V135.07H1233.21V129.982C1233.21 129.353 1233.08 128.889 1232.81 128.59C1232.54 128.292 1232.12 128.142 1231.55 128.142C1230.97 128.142 1230.5 128.318 1230.12 128.67C1229.76 129.012 1229.58 129.502 1229.58 130.142V135.07H1227.64ZM1240.71 135.23C1239.63 135.23 1238.74 134.862 1238.06 134.126C1237.37 133.38 1237.03 132.345 1237.03 131.022V130.894C1237.03 129.572 1237.39 128.516 1238.09 127.726C1238.79 126.926 1239.69 126.526 1240.79 126.526C1242.03 126.526 1242.92 127.012 1243.47 127.982V122.83H1245.4V135.07H1243.47V133.662C1243.23 134.1 1242.86 134.473 1242.35 134.782C1241.84 135.081 1241.3 135.23 1240.71 135.23ZM1241.19 133.694C1241.9 133.694 1242.46 133.46 1242.89 132.99C1243.32 132.521 1243.53 131.833 1243.53 130.926V130.798C1243.53 129.892 1243.33 129.209 1242.94 128.75C1242.54 128.281 1241.99 128.046 1241.27 128.046C1240.56 128.046 1240 128.292 1239.61 128.782C1239.21 129.262 1239.02 129.95 1239.02 130.846V130.974C1239.02 131.86 1239.21 132.537 1239.61 133.006C1240.01 133.465 1240.54 133.694 1241.19 133.694ZM1251.58 135.23C1250.33 135.23 1249.32 134.846 1248.53 134.078C1247.74 133.31 1247.34 132.276 1247.34 130.974V130.846C1247.34 129.566 1247.73 128.526 1248.51 127.726C1249.3 126.926 1250.3 126.526 1251.5 126.526C1252.63 126.526 1253.57 126.878 1254.32 127.582C1255.08 128.286 1255.45 129.342 1255.45 130.75V131.31H1249.33C1249.36 132.11 1249.57 132.724 1249.97 133.15C1250.36 133.577 1250.92 133.79 1251.63 133.79C1252.76 133.79 1253.4 133.364 1253.55 132.51H1255.42C1255.28 133.385 1254.88 134.057 1254.21 134.526C1253.53 134.996 1252.66 135.23 1251.58 135.23ZM1249.36 130.014H1253.53C1253.44 128.628 1252.76 127.934 1251.5 127.934C1250.93 127.934 1250.45 128.121 1250.06 128.494C1249.69 128.857 1249.45 129.364 1249.36 130.014ZM1257.72 135.07V128.158H1256.58V126.702H1257.72V125.582C1257.72 124.665 1257.96 123.966 1258.44 123.486C1258.92 122.996 1259.61 122.75 1260.5 122.75C1260.9 122.75 1261.25 122.798 1261.56 122.894V124.398C1261.36 124.313 1261.08 124.27 1260.74 124.27C1260.02 124.27 1259.66 124.681 1259.66 125.502V126.702H1261.56V128.158H1259.66V135.07H1257.72ZM1263.21 135.07V126.702H1265.15V135.07H1263.21ZM1264.97 125.006C1264.75 125.22 1264.47 125.326 1264.15 125.326C1263.83 125.326 1263.56 125.22 1263.34 125.006C1263.11 124.793 1263 124.532 1263 124.222C1263 123.902 1263.11 123.636 1263.34 123.422C1263.56 123.209 1263.83 123.102 1264.15 123.102C1264.47 123.102 1264.75 123.209 1264.97 123.422C1265.19 123.636 1265.31 123.902 1265.31 124.222C1265.31 124.532 1265.19 124.793 1264.97 125.006ZM1267.71 135.07V126.702H1269.64V128.03C1269.85 127.593 1270.2 127.236 1270.67 126.958C1271.13 126.67 1271.69 126.526 1272.35 126.526C1273.23 126.526 1273.93 126.798 1274.44 127.342C1274.95 127.876 1275.21 128.697 1275.21 129.806V135.07H1273.27V129.982C1273.27 129.353 1273.14 128.889 1272.87 128.59C1272.61 128.292 1272.19 128.142 1271.61 128.142C1271.03 128.142 1270.56 128.318 1270.19 128.67C1269.82 129.012 1269.64 129.502 1269.64 130.142V135.07H1267.71ZM1281.32 135.23C1280.07 135.23 1279.05 134.846 1278.26 134.078C1277.47 133.31 1277.08 132.276 1277.08 130.974V130.846C1277.08 129.566 1277.47 128.526 1278.25 127.726C1279.04 126.926 1280.03 126.526 1281.24 126.526C1282.37 126.526 1283.31 126.878 1284.06 127.582C1284.81 128.286 1285.19 129.342 1285.19 130.75V131.31H1279.06C1279.1 132.11 1279.31 132.724 1279.7 133.15C1280.1 133.577 1280.65 133.79 1281.37 133.79C1282.5 133.79 1283.14 133.364 1283.29 132.51H1285.16C1285.02 133.385 1284.62 134.057 1283.94 134.526C1283.27 134.996 1282.4 135.23 1281.32 135.23ZM1279.1 130.014H1283.27C1283.18 128.628 1282.5 127.934 1281.24 127.934C1280.66 127.934 1280.18 128.121 1279.8 128.494C1279.43 128.857 1279.19 129.364 1279.1 130.014ZM1290.26 135.23C1289.17 135.23 1288.28 134.862 1287.6 134.126C1286.92 133.38 1286.58 132.345 1286.58 131.022V130.894C1286.58 129.572 1286.93 128.516 1287.63 127.726C1288.34 126.926 1289.24 126.526 1290.34 126.526C1291.57 126.526 1292.46 127.012 1293.01 127.982V122.83H1294.94V135.07H1293.01V133.662C1292.77 134.1 1292.4 134.473 1291.89 134.782C1291.39 135.081 1290.84 135.23 1290.26 135.23ZM1290.74 133.694C1291.44 133.694 1292.01 133.46 1292.43 132.99C1292.86 132.521 1293.07 131.833 1293.07 130.926V130.798C1293.07 129.892 1292.88 129.209 1292.48 128.75C1292.09 128.281 1291.53 128.046 1290.82 128.046C1290.1 128.046 1289.55 128.292 1289.15 128.782C1288.76 129.262 1288.56 129.95 1288.56 130.846V130.974C1288.56 131.86 1288.76 132.537 1289.15 133.006C1289.56 133.465 1290.09 133.694 1290.74 133.694Z" fill="white"/>
</g>
<g clip-path="url(#clip11_62_2950)">
<path d="M1009.33 169.029H997.667C995.246 169.029 993.292 170.983 993.292 173.404V196.737C993.292 199.158 995.246 201.112 997.667 201.112H1009.33C1011.75 201.112 1013.71 199.158 1013.71 196.737V173.404C1013.71 170.983 1011.75 169.029 1009.33 169.029ZM1006.42 198.195H1000.58V196.737H1006.42V198.195ZM1011.16 193.82H995.844V173.404H1011.16V193.82Z" fill="white"/>
<path d="M1034.41 192.438C1032.64 190.337 1031.75 187.878 1031.75 185.062C1031.75 182.246 1032.64 179.788 1034.41 177.686H1036.1C1034.48 179.852 1033.67 182.31 1033.67 185.062C1033.67 187.814 1034.48 190.273 1036.1 192.438H1034.41ZM1036.88 190.07V189.686L1041.2 185.126C1042.36 183.9 1042.94 182.817 1042.94 181.878C1042.94 181.334 1042.79 180.908 1042.49 180.598C1042.19 180.289 1041.77 180.134 1041.23 180.134C1040.05 180.134 1039.36 180.892 1039.18 182.406H1037.23C1037.3 181.158 1037.7 180.193 1038.41 179.51C1039.13 178.817 1040.09 178.47 1041.29 178.47C1042.47 178.47 1043.39 178.78 1044.06 179.398C1044.73 180.006 1045.07 180.822 1045.07 181.846C1045.07 183.137 1044.32 184.502 1042.83 185.942L1040.29 188.422H1045.15V190.07H1036.88ZM1050.95 190.23C1049.62 190.23 1048.58 189.894 1047.83 189.222C1047.1 188.55 1046.7 187.654 1046.65 186.534H1048.58C1048.65 187.174 1048.87 187.686 1049.24 188.07C1049.61 188.444 1050.17 188.63 1050.9 188.63C1051.63 188.63 1052.17 188.47 1052.54 188.15C1052.9 187.82 1053.08 187.361 1053.08 186.774C1053.08 185.526 1052.39 184.902 1051.02 184.902H1050.14V183.382H1050.95C1052.22 183.382 1052.86 182.822 1052.86 181.702C1052.86 181.222 1052.7 180.833 1052.39 180.534C1052.09 180.236 1051.66 180.086 1051.08 180.086C1050.48 180.086 1049.99 180.257 1049.61 180.598C1049.23 180.929 1049.02 181.388 1048.95 181.974H1047.06C1047.12 180.95 1047.51 180.113 1048.23 179.462C1048.96 178.801 1049.92 178.47 1051.11 178.47C1052.27 178.47 1053.19 178.764 1053.86 179.35C1054.55 179.937 1054.89 180.668 1054.89 181.542C1054.89 182.737 1054.27 183.569 1053.03 184.038C1053.71 184.198 1054.25 184.518 1054.65 184.998C1055.04 185.468 1055.24 186.07 1055.24 186.806C1055.24 187.862 1054.85 188.7 1054.07 189.318C1053.3 189.926 1052.26 190.23 1050.95 190.23ZM1061.09 190.214C1059.93 190.214 1059 189.942 1058.32 189.398C1057.64 188.854 1057.23 188.086 1057.09 187.094H1059.09C1059.31 188.076 1059.97 188.566 1061.06 188.566C1062.72 188.566 1063.57 187.26 1063.6 184.646C1063.01 185.606 1062.07 186.086 1060.78 186.086C1059.66 186.086 1058.75 185.75 1058.05 185.078C1057.34 184.396 1056.99 183.494 1056.99 182.374C1056.99 181.201 1057.38 180.257 1058.14 179.542C1058.91 178.817 1059.94 178.454 1061.23 178.454C1062.7 178.454 1063.81 178.918 1064.56 179.846C1065.32 180.774 1065.7 182.081 1065.7 183.766V184.358C1065.7 186.236 1065.3 187.681 1064.5 188.694C1063.7 189.708 1062.56 190.214 1061.09 190.214ZM1059.66 183.974C1060.06 184.39 1060.58 184.598 1061.23 184.598C1061.88 184.598 1062.41 184.401 1062.82 184.006C1063.23 183.612 1063.44 183.1 1063.44 182.47C1063.44 181.713 1063.24 181.121 1062.83 180.694C1062.43 180.257 1061.89 180.038 1061.22 180.038C1060.58 180.038 1060.06 180.246 1059.66 180.662C1059.28 181.078 1059.09 181.628 1059.09 182.31C1059.09 183.004 1059.28 183.558 1059.66 183.974ZM1066.99 192.406C1068.6 190.23 1069.41 187.772 1069.41 185.03C1069.41 182.289 1068.6 179.83 1066.99 177.654H1068.67C1070.44 179.756 1071.33 182.214 1071.33 185.03C1071.33 187.846 1070.44 190.305 1068.67 192.406H1066.99ZM1080.95 190.23C1079.66 190.23 1078.67 189.916 1077.99 189.286C1077.31 188.657 1076.93 187.825 1076.87 186.79H1078.85C1078.95 187.377 1079.15 187.825 1079.45 188.134C1079.76 188.433 1080.25 188.582 1080.93 188.582C1081.58 188.582 1082.09 188.374 1082.45 187.958C1082.82 187.542 1083 186.977 1083 186.262C1083 185.569 1082.81 185.02 1082.44 184.614C1082.06 184.209 1081.56 184.006 1080.93 184.006C1079.92 184.006 1079.13 184.337 1078.55 184.998H1077.46L1077.56 178.63H1084.5V180.31H1079.19L1079.17 183.414C1079.73 182.774 1080.55 182.454 1081.64 182.454C1082.68 182.454 1083.53 182.801 1084.18 183.494C1084.83 184.177 1085.16 185.11 1085.16 186.294C1085.16 187.489 1084.77 188.444 1083.99 189.158C1083.21 189.873 1082.2 190.23 1080.95 190.23ZM1090.73 190.23C1089.44 190.23 1088.45 189.916 1087.77 189.286C1087.09 188.657 1086.71 187.825 1086.65 186.79H1088.63C1088.73 187.377 1088.93 187.825 1089.22 188.134C1089.53 188.433 1090.03 188.582 1090.71 188.582C1091.36 188.582 1091.87 188.374 1092.23 187.958C1092.59 187.542 1092.78 186.977 1092.78 186.262C1092.78 185.569 1092.59 185.02 1092.22 184.614C1091.84 184.209 1091.34 184.006 1090.71 184.006C1089.7 184.006 1088.9 184.337 1088.33 184.998H1087.24L1087.34 178.63H1094.28V180.31H1088.97L1088.95 183.414C1089.51 182.774 1090.33 182.454 1091.42 182.454C1092.46 182.454 1093.31 182.801 1093.96 183.494C1094.61 184.177 1094.94 185.11 1094.94 186.294C1094.94 187.489 1094.55 188.444 1093.77 189.158C1092.99 189.873 1091.98 190.23 1090.73 190.23ZM1100.51 190.23C1099.22 190.23 1098.23 189.916 1097.55 189.286C1096.86 188.657 1096.49 187.825 1096.43 186.79H1098.41C1098.51 187.377 1098.7 187.825 1099 188.134C1099.31 188.433 1099.81 188.582 1100.49 188.582C1101.14 188.582 1101.65 188.374 1102.01 187.958C1102.37 187.542 1102.55 186.977 1102.55 186.262C1102.55 185.569 1102.37 185.02 1101.99 184.614C1101.62 184.209 1101.12 184.006 1100.49 184.006C1099.48 184.006 1098.68 184.337 1098.11 184.998H1097.02L1097.11 178.63H1104.06V180.31H1098.75L1098.73 183.414C1099.28 182.774 1100.11 182.454 1101.19 182.454C1102.24 182.454 1103.09 182.801 1103.74 183.494C1104.39 184.177 1104.71 185.11 1104.71 186.294C1104.71 187.489 1104.32 188.444 1103.55 189.158C1102.77 189.873 1101.75 190.23 1100.51 190.23ZM1106.6 185.67V184.022H1110.89V185.67H1106.6ZM1117.65 188.534C1119.39 188.534 1120.26 187.222 1120.26 184.598V184.038C1120.26 182.812 1120.03 181.857 1119.57 181.174C1119.11 180.481 1118.46 180.134 1117.62 180.134C1116.75 180.134 1116.09 180.47 1115.63 181.142C1115.17 181.814 1114.94 182.785 1114.94 184.054V184.63C1114.94 185.91 1115.18 186.881 1115.65 187.542C1116.12 188.204 1116.78 188.534 1117.65 188.534ZM1117.6 190.23C1116.14 190.23 1114.97 189.729 1114.1 188.726C1113.23 187.724 1112.8 186.364 1112.8 184.646V184.07C1112.8 182.353 1113.24 180.993 1114.11 179.99C1114.99 178.977 1116.15 178.47 1117.6 178.47C1119.06 178.47 1120.22 178.972 1121.09 179.974C1121.95 180.966 1122.38 182.316 1122.38 184.022V184.598C1122.38 186.326 1121.96 187.697 1121.1 188.71C1120.25 189.724 1119.08 190.23 1117.6 190.23ZM1126.33 190.07V180.742L1123.92 182.39V180.518L1126.57 178.63H1128.48V190.07H1126.33ZM1135.97 188.534C1137.71 188.534 1138.58 187.222 1138.58 184.598V184.038C1138.58 182.812 1138.35 181.857 1137.89 181.174C1137.43 180.481 1136.78 180.134 1135.94 180.134C1135.07 180.134 1134.41 180.47 1133.95 181.142C1133.5 181.814 1133.27 182.785 1133.27 184.054V184.63C1133.27 185.91 1133.5 186.881 1133.97 187.542C1134.44 188.204 1135.11 188.534 1135.97 188.534ZM1135.92 190.23C1134.46 190.23 1133.29 189.729 1132.42 188.726C1131.55 187.724 1131.12 186.364 1131.12 184.646V184.07C1131.12 182.353 1131.56 180.993 1132.43 179.99C1133.31 178.977 1134.47 178.47 1135.92 178.47C1137.38 178.47 1138.55 178.972 1139.41 179.974C1140.27 180.966 1140.71 182.316 1140.71 184.022V184.598C1140.71 186.326 1140.28 187.697 1139.43 188.71C1138.57 189.724 1137.4 190.23 1135.92 190.23ZM1146.59 190.23C1145.39 190.23 1144.37 189.932 1143.54 189.334C1142.72 188.737 1142.3 187.905 1142.3 186.838C1142.3 186.134 1142.5 185.532 1142.88 185.03C1143.26 184.529 1143.79 184.161 1144.45 183.926C1143.32 183.478 1142.75 182.684 1142.75 181.542C1142.75 180.614 1143.13 179.873 1143.89 179.318C1144.65 178.753 1145.55 178.47 1146.59 178.47C1147.66 178.47 1148.56 178.748 1149.3 179.302C1150.04 179.857 1150.42 180.593 1150.42 181.51C1150.42 182.62 1149.85 183.42 1148.72 183.91C1149.4 184.156 1149.93 184.524 1150.29 185.014C1150.66 185.494 1150.85 186.081 1150.85 186.774C1150.85 187.862 1150.44 188.71 1149.63 189.318C1148.82 189.926 1147.81 190.23 1146.59 190.23ZM1146.59 188.63C1147.22 188.63 1147.73 188.454 1148.13 188.102C1148.52 187.75 1148.72 187.265 1148.72 186.646C1148.72 186.038 1148.52 185.564 1148.13 185.222C1147.73 184.87 1147.23 184.694 1146.61 184.694C1146 184.694 1145.49 184.87 1145.07 185.222C1144.66 185.564 1144.45 186.044 1144.45 186.662C1144.45 187.281 1144.65 187.766 1145.06 188.118C1145.47 188.46 1145.98 188.63 1146.59 188.63ZM1146.62 183.302C1147.16 183.302 1147.58 183.153 1147.9 182.854C1148.24 182.556 1148.4 182.15 1148.4 181.638C1148.4 181.158 1148.23 180.769 1147.89 180.47C1147.55 180.161 1147.12 180.006 1146.59 180.006C1146.07 180.006 1145.64 180.156 1145.3 180.454C1144.96 180.753 1144.78 181.153 1144.78 181.654C1144.78 182.156 1144.96 182.556 1145.31 182.854C1145.68 183.153 1146.11 183.302 1146.62 183.302Z" fill="white"/>
</g>
<g clip-path="url(#clip12_62_2950)">
<path d="M1023.14 247.249C1021.92 247.777 1020.59 248.157 1019.21 248.305C1020.64 247.459 1021.71 246.121 1022.22 244.543C1020.88 245.339 1019.41 245.897 1017.89 246.192C1017.25 245.509 1016.47 244.965 1015.62 244.594C1014.76 244.223 1013.83 244.033 1012.9 244.035C1009.12 244.035 1006.07 247.101 1006.07 250.863C1006.07 251.391 1006.14 251.92 1006.24 252.428C1000.58 252.132 995.527 249.426 992.169 245.283C991.557 246.329 991.236 247.519 991.24 248.73C991.24 251.099 992.445 253.189 994.282 254.417C993.2 254.375 992.142 254.077 991.196 253.549V253.633C991.196 256.951 993.542 259.701 996.668 260.333C996.081 260.486 995.477 260.564 994.871 260.565C994.426 260.565 994.006 260.521 993.582 260.461C994.446 263.167 996.964 265.132 999.962 265.196C997.616 267.034 994.678 268.114 991.488 268.114C990.916 268.114 990.388 268.094 989.839 268.03C992.865 269.972 996.456 271.092 1000.32 271.092C1012.87 271.092 1019.74 260.693 1019.74 251.668C1019.74 251.371 1019.74 251.075 1019.72 250.779C1021.05 249.806 1022.22 248.602 1023.14 247.249Z" fill="white"/>
<path d="M1086.21 241.553H1056.75C1056.04 241.553 1055.47 242.126 1055.47 242.834V272.293C1055.47 273.002 1056.04 273.574 1056.75 273.574H1086.21C1086.92 273.574 1087.49 273.002 1087.49 272.293V242.834C1087.49 242.126 1086.92 241.553 1086.21 241.553ZM1082.51 250.899H1079.95C1077.95 250.899 1077.56 251.852 1077.56 253.253V256.339H1082.35L1081.72 261.17H1077.56V273.574H1072.57V261.174H1068.39V256.339H1072.57V252.777C1072.57 248.642 1075.1 246.388 1078.79 246.388C1080.55 246.388 1082.07 246.52 1082.52 246.58V250.899H1082.51Z" fill="white"/>
<path d="M1151.2 241.553H1121.74C1121.03 241.553 1120.46 242.126 1120.46 242.834V272.293C1120.46 273.002 1121.03 273.574 1121.74 273.574H1151.2C1151.91 273.574 1152.48 273.002 1152.48 272.293V242.834C1152.48 242.126 1151.91 241.553 1151.2 241.553ZM1129.96 268.839H1125.21V253.557H1129.96V268.839ZM1127.58 251.468C1127.04 251.468 1126.51 251.306 1126.05 251.004C1125.6 250.701 1125.25 250.271 1125.04 249.768C1124.83 249.265 1124.78 248.711 1124.88 248.177C1124.99 247.642 1125.25 247.152 1125.64 246.767C1126.02 246.382 1126.51 246.119 1127.05 246.013C1127.58 245.907 1128.13 245.961 1128.64 246.17C1129.14 246.378 1129.57 246.731 1129.87 247.184C1130.18 247.637 1130.34 248.169 1130.34 248.714C1130.33 250.235 1129.1 251.468 1127.58 251.468ZM1147.74 268.839H1143V261.406C1143 259.633 1142.96 257.355 1140.53 257.355C1138.06 257.355 1137.68 259.285 1137.68 261.278V268.839H1132.93V253.557H1137.49V255.646H1137.55C1138.19 254.446 1139.73 253.177 1142.05 253.177C1146.86 253.177 1147.74 256.343 1147.74 260.457V268.839Z" fill="white"/>
</g>
</g>
</g>
<defs>
<clipPath id="clip0_62_2950">
<rect width="1031" height="223" fill="white" transform="translate(274 107.07)"/>
</clipPath>
<clipPath id="clip1_62_2950">
<rect width="513" height="223" fill="white" transform="translate(274 107.07)"/>
</clipPath>
<clipPath id="clip2_62_2950">
<rect width="513" height="223" fill="white" transform="translate(274 107.07)"/>
</clipPath>
<clipPath id="clip3_62_2950">
<rect width="121" height="223" fill="white" transform="translate(274 107.07)"/>
</clipPath>
<clipPath id="clip4_62_2950">
<rect width="121" height="153" fill="white" transform="translate(274 177.07)"/>
</clipPath>
<clipPath id="clip5_62_2950">
<rect width="121" height="223" fill="white" transform="translate(470 107.07)"/>
</clipPath>
<clipPath id="clip6_62_2950">
<rect width="121" height="153" fill="white" transform="translate(470 177.07)"/>
</clipPath>
<clipPath id="clip7_62_2950">
<rect width="121" height="223" fill="white" transform="translate(666 107.07)"/>
</clipPath>
<clipPath id="clip8_62_2950">
<rect width="121" height="153" fill="white" transform="translate(666 177.07)"/>
</clipPath>
<clipPath id="clip9_62_2950">
<rect width="319" height="190.987" fill="white" transform="translate(986 107.07)"/>
</clipPath>
<clipPath id="clip10_62_2950">
<rect width="319" height="46" fill="white" transform="translate(986 107.07)"/>
</clipPath>
<clipPath id="clip11_62_2950">
<rect width="176" height="44" fill="white" transform="translate(986 163.07)"/>
</clipPath>
<clipPath id="clip12_62_2950">
<rect width="170.96" height="80.9866" fill="white" transform="translate(986 217.07)"/>
</clipPath>
</defs>
</svg>
